<?xml version="1.0" encoding="utf-8"?>
<!-- Generator: Adobe Illustrator 26.4.1, SVG Export Plug-In . SVG Version: 6.00 Build 0)  -->
<svg version="1.1" id="Layer_1" xmlns="http://www.w3.org/2000/svg" xmlns:xlink="http://www.w3.org/1999/xlink" x="0px" y="0px"
	 viewBox="0 0 500 40" style="enable-background:new 0 0 500 40;" xml:space="preserve">
<style type="text/css">
	.st0{fill:#004A98;}
	.st1{fill:#93D500;}
</style>
<g>
	<path class="st0" d="M108,40V0h9.4v32.8h31.7V40C149.1,40,108,40,108,40z"/>
	<path class="st0" d="M159.6,40V0h42.2v7.2h-32.9v8H200v7.3h-31.2v10.2h32.9V40C201.8,40,159.6,40,159.6,40z"/>
	<path class="st0" d="M258.3,40L238.9,9.5L219.1,40h-10.3l26.7-40h6.8l26.5,40H258.3z"/>
	<path class="st0" d="M275.8,40v-7.3h35.6c2.6,0,3.6-0.5,3.6-2.4v-5.7c0-1.8-1.1-2.4-3.6-2.4h-23.9c-9.4,0-13-3.9-13-9.7V9.7
		c0-5.8,3.6-9.7,13-9.7h34.6v7.2h-34.6c-2.4,0-3.7,0.6-3.7,2.4v2.8c0,1.7,1.1,2.4,3.7,2.4h23.9c9.4,0,13,3.9,13,9.7v5.6
		c0,5.8-3.6,9.8-13,9.8L275.8,40L275.8,40z"/>
	<path class="st0" d="M374.7,40V22.5h-30.5V40h-9.3V0h9.3v15.2h30.5V0h9.3v40H374.7z"/>
	<path class="st0" d="M394.5,40V0h42.2v7.2h-32.9v8H435v7.3h-31.2v10.2h32.9V40C436.7,40,394.5,40,394.5,40z"/>
	<path class="st0" d="M447.3,40V0h37.6C496.5,0,500,3.9,500,11.8v16.8c0,7.5-3.5,11.4-15.1,11.4H447.3z M490.7,11.8
		c0-3.9-1.2-4.6-5.8-4.6h-28.3v25.5h28.3c4.6,0,5.8-0.7,5.8-4.3V11.8z"/>
	<path class="st1" d="M42,30.4c0,1.7-1.3,2.3-3.6,2.3H12.8c-2.3,0-3.6-0.7-3.6-2.3V0H0v30.4C0,36.1,3.5,40,12.8,40h25.5
		c9.3,0,12.8-3.9,12.8-9.7v-2.6L42,21.2V30.4z"/>
	<polyline class="st0" points="51.2,19.3 51.2,10.9 92.9,40 97.5,40 97.5,0 89.3,0 89.3,27.4 51.2,0 42,0 42,12.8 42,12.8 42,12.8 
		42,12.8 51.2,19.3 	"/>
</g>
</svg>
