<svg xmlns="http://www.w3.org/2000/svg" viewBox="0 0 68.58 24.2"><defs><style>.cls-1{fill:#fff;}.cls-2{fill:#dd4926;}</style></defs><g id="Layer_2" data-name="Layer 2"><g id="Layer_1-2" data-name="Layer 1"><path class="cls-1" d="M8.61,21.85a6.38,6.38,0,0,1-.73,1,3.94,3.94,0,0,1-.89.74,4,4,0,0,1-1.1.48,5,5,0,0,1-1.33.17,4.23,4.23,0,0,1-1.7-.34,4.79,4.79,0,0,1-1.4-.92,4.21,4.21,0,0,1-.93-1.37,4.27,4.27,0,0,1,0-3.34,4.17,4.17,0,0,1,.93-1.36,4.63,4.63,0,0,1,1.4-.93,4.41,4.41,0,0,1,1.7-.34,5.22,5.22,0,0,1,1.36.17A4.68,4.68,0,0,1,7,16.25a4.17,4.17,0,0,1,.88.75,7.07,7.07,0,0,1,.72,1,.19.19,0,0,1,0,.19.22.22,0,0,1-.13.15l-1.62.63a.28.28,0,0,1-.22,0,.35.35,0,0,1-.18-.13,2.33,2.33,0,0,0-.79-.8,2.13,2.13,0,0,0-1.13-.28,1.85,1.85,0,0,0-.81.18,2.28,2.28,0,0,0-.67.48,2.57,2.57,0,0,0-.44.71,2.3,2.3,0,0,0-.16.82,2.26,2.26,0,0,0,.16.82,2.21,2.21,0,0,0,.44.69,2.28,2.28,0,0,0,.67.48,1.85,1.85,0,0,0,.81.18,2.15,2.15,0,0,0,1.13-.3A2.33,2.33,0,0,0,6.5,21a.3.3,0,0,1,.16-.13.28.28,0,0,1,.22,0l1.62.63a.22.22,0,0,1,.13.15A.21.21,0,0,1,8.61,21.85Z"/><path class="cls-1" d="M11.45,24.05H9.75a.3.3,0,0,1-.2-.08.27.27,0,0,1-.08-.19V16a.27.27,0,0,1,.08-.19.26.26,0,0,1,.2-.08h3.53A3.23,3.23,0,0,1,14.5,16a2.7,2.7,0,0,1,.95.62,2.73,2.73,0,0,1,.61.94,3.18,3.18,0,0,1,.23,1.21,3,3,0,0,1-.09.72,3.91,3.91,0,0,1-.24.68,3.33,3.33,0,0,1-.38.57,2.23,2.23,0,0,1-.49.43.31.31,0,0,0-.12.16.22.22,0,0,0,0,.19c.29.38.59.77.91,1.17s.6.77.85,1.1a.21.21,0,0,1,0,.2.13.13,0,0,1-.15.11H14.55A.61.61,0,0,1,14.3,24a.53.53,0,0,1-.2-.15l-.72-1-.7-1a.53.53,0,0,0-.2-.15.43.43,0,0,0-.23-.07H12a.27.27,0,0,0-.27.28v1.84a.27.27,0,0,1-.08.19A.3.3,0,0,1,11.45,24.05ZM12,19.57h1.2a1,1,0,0,0,.28-.05.74.74,0,0,0,.27-.16,1,1,0,0,0,.21-.27.84.84,0,0,0,.07-.37,1.39,1.39,0,0,0,0-.27,1.11,1.11,0,0,0-.14-.29.75.75,0,0,0-.26-.24.72.72,0,0,0-.4-.1H12a.26.26,0,0,0-.19.08.24.24,0,0,0-.08.19V19.3a.24.24,0,0,0,.08.19A.26.26,0,0,0,12,19.57Z"/><path class="cls-1" d="M19.89,18.09v.48a.26.26,0,0,0,.08.19.24.24,0,0,0,.19.08h3.08a.27.27,0,0,1,.28.28v1.57a.27.27,0,0,1-.08.19.3.3,0,0,1-.2.08H20.16a.27.27,0,0,0-.27.27v.43a.3.3,0,0,0,.08.2.27.27,0,0,0,.19.08H23.7a.24.24,0,0,1,.19.08.22.22,0,0,1,.08.19v1.57a.24.24,0,0,1-.08.19.27.27,0,0,1-.19.08H17.91a.27.27,0,0,1-.27-.27V16a.27.27,0,0,1,.08-.19.24.24,0,0,1,.19-.08H23.7A.27.27,0,0,1,24,16v1.55a.24.24,0,0,1-.08.19.27.27,0,0,1-.19.08H20.16a.27.27,0,0,0-.27.27Z"/><path class="cls-1" d="M27.82,16a.43.43,0,0,1,.15-.18.39.39,0,0,1,.23-.07h1.59a.41.41,0,0,1,.23.07.43.43,0,0,1,.15.18l3.32,7.73a.25.25,0,0,1,0,.22.25.25,0,0,1-.24.11H31.28a.39.39,0,0,1-.23-.07.58.58,0,0,1-.17-.18l-.3-.68a.48.48,0,0,0-.17-.18.36.36,0,0,0-.22-.07h-2.4a.39.39,0,0,0-.23.07.43.43,0,0,0-.15.18l-.32.68a.39.39,0,0,1-.16.18.36.36,0,0,1-.22.07H24.76l-.12,0a.26.26,0,0,1-.1-.07.24.24,0,0,1-.06-.11.34.34,0,0,1,0-.16Zm.67,5h1a.18.18,0,0,0,.16-.08.14.14,0,0,0,0-.17c-.08-.19-.17-.42-.28-.67l-.29-.71c0-.07-.07-.1-.1-.1s-.08,0-.11.1l-.56,1.38a.17.17,0,0,0,0,.17A.18.18,0,0,0,28.49,20.94Z"/><path class="cls-1" d="M38.88,17.82H37.29a.3.3,0,0,0-.2.08.27.27,0,0,0-.08.19v5.69a.26.26,0,0,1-.07.19.28.28,0,0,1-.2.08H35a.3.3,0,0,1-.2-.08.27.27,0,0,1-.08-.19V18.09a.26.26,0,0,0-.07-.19.28.28,0,0,0-.2-.08H32.88a.3.3,0,0,1-.2-.08.27.27,0,0,1-.08-.19V16a.27.27,0,0,1,.08-.19.26.26,0,0,1,.2-.08h6a.24.24,0,0,1,.2.08.26.26,0,0,1,.07.19v1.55a.26.26,0,0,1-.07.19A.28.28,0,0,1,38.88,17.82Z"/><path class="cls-1" d="M42.1,24.05H40.39a.28.28,0,0,1-.2-.08.26.26,0,0,1-.07-.19V16a.26.26,0,0,1,.07-.19.28.28,0,0,1,.2-.08H42.1a.27.27,0,0,1,.27.27v7.77a.27.27,0,0,1-.27.27Z"/><path class="cls-1" d="M46.67,23.8l-3.44-7.74a.26.26,0,0,1,0-.23c0-.07.1-.1.2-.1h1.85a.36.36,0,0,1,.22.07.58.58,0,0,1,.17.18l2,4.57a.16.16,0,0,0,.15.1.15.15,0,0,0,.14-.1L50,16a.58.58,0,0,1,.17-.18.36.36,0,0,1,.22-.07h1.89a.2.2,0,0,1,.18.09.19.19,0,0,1,0,.19L49,23.8a.46.46,0,0,1-.16.18.38.38,0,0,1-.22.07H47.05a.38.38,0,0,1-.22-.07A.55.55,0,0,1,46.67,23.8Z"/><path class="cls-1" d="M55.57,18.09v.48a.26.26,0,0,0,.08.19.24.24,0,0,0,.19.08h3.08a.27.27,0,0,1,.28.28v1.57a.27.27,0,0,1-.08.19.3.3,0,0,1-.2.08H55.84a.27.27,0,0,0-.27.27v.43a.3.3,0,0,0,.08.2.27.27,0,0,0,.19.08h3.54a.24.24,0,0,1,.19.08.26.26,0,0,1,.08.19v1.57a.27.27,0,0,1-.27.27H53.59A.27.27,0,0,1,53.4,24a.24.24,0,0,1-.08-.19V16a.27.27,0,0,1,.27-.27h5.79a.24.24,0,0,1,.19.08.27.27,0,0,1,.08.19v1.55a.27.27,0,0,1-.27.27H55.84a.27.27,0,0,0-.27.27Z"/><path class="cls-1" d="M64.11,15.61a5.65,5.65,0,0,0-1.13.12,3.18,3.18,0,0,0-1,.39l-.08,0a2.66,2.66,0,0,0-.78.82,2.51,2.51,0,0,0-.3,1.29,2.38,2.38,0,0,0,.16.93,2.21,2.21,0,0,0,.23.36,2.2,2.2,0,0,0,.21.32,2.33,2.33,0,0,0,.62.46c.15.08.31.14.47.21l.1-.07A2.07,2.07,0,0,0,63,20a4.06,4.06,0,0,0,.27-.6c.08-.2.14-.38.19-.52l.09-.29a1.23,1.23,0,0,1-.23-.09c-.16-.08-.24-.18-.24-.28a.33.33,0,0,1,.09-.25.56.56,0,0,1,.25-.14,1.55,1.55,0,0,1,.31,0h0l.06-.22c.11-.49.2-1,.27-1.54,0-.13,0-.26,0-.39Z"/><path class="cls-1" d="M65.13,18a5.1,5.1,0,0,1,.91.45.23.23,0,0,0,.21.05.34.34,0,0,0,.18-.11l.89-1.27a.28.28,0,0,0,.05-.2.24.24,0,0,0-.1-.19,5.39,5.39,0,0,0-1.45-.82,3.89,3.89,0,0,0-.4-.1c0,.27,0,.54-.06.81A13.24,13.24,0,0,1,65.13,18Z"/><path class="cls-1" d="M64.41,20.19a5.82,5.82,0,0,1-.45.72H64l.51.1a2.26,2.26,0,0,1,.44.09.7.7,0,0,1,.3.14.27.27,0,0,1,.12.23.47.47,0,0,1-.27.43,1.66,1.66,0,0,1-.76.14,3.2,3.2,0,0,1-1.12-.23l-.19-.08a1.74,1.74,0,0,1-.87.23,1.82,1.82,0,0,1-.88-.22l-.54.79a.26.26,0,0,0-.06.21.27.27,0,0,0,.1.19,7.25,7.25,0,0,0,.7.49,5.34,5.34,0,0,0,.83.41,5.27,5.27,0,0,0,.95.26,5.52,5.52,0,0,0,1.11.1,5.44,5.44,0,0,0,1.32-.15,2.84,2.84,0,0,0,1-.48,2.12,2.12,0,0,0,.67-.81,2.67,2.67,0,0,0,.24-1.18,2.38,2.38,0,0,0-.29-1.21,2.57,2.57,0,0,0-.72-.78,3.54,3.54,0,0,0-.91-.46c-.31-.09-.6-.16-.86-.22,0,.11,0,.22-.09.33A5.7,5.7,0,0,1,64.41,20.19Z"/><path class="cls-2" d="M38.44,9.86a.42.42,0,0,0-.32.21,9.08,9.08,0,0,1-.41.89,8.5,8.5,0,0,1-.61,1,4.3,4.3,0,0,1-.75.83,1.55,1.55,0,0,1-.84.4,1,1,0,0,1-.24-.54,4,4,0,0,1-.06-.72c0-.34,0-.69,0-1a8.06,8.06,0,0,0,.05-.9.65.65,0,0,0-.22-.4.53.53,0,0,0-.35-.13.91.91,0,0,0-.6.38l-1.06,1.75a6.16,6.16,0,0,1,.23-1.2,4.22,4.22,0,0,0,.19-1.25,2.56,2.56,0,0,0,0-.39,1.34,1.34,0,0,0-.11-.37.85.85,0,0,0-.24-.29.62.62,0,0,0-.4-.12.79.79,0,0,0-.53.2,2.6,2.6,0,0,0-.44.49,4.57,4.57,0,0,0-.36.58l-.27.48a5.08,5.08,0,0,0-.42.76c-.13.27-.27.54-.43.81.1-.37.19-.73.28-1.08a4.48,4.48,0,0,0,.12-1,1.59,1.59,0,0,0-.07-.48c-.05-.16-.11-.25-.18-.25s-.14.08-.24.22a5.45,5.45,0,0,0-.42.79c-.07.26-.17.57-.29.9s-.23.68-.34,1-.2.72-.28,1.08c0,0,0,.05,0,.08a.37.37,0,0,0-.17.05l-1,.38a5.76,5.76,0,0,1-1,.3c.12-.6.21-1.09.29-1.47a5.2,5.2,0,0,0,.12-1.05,2.71,2.71,0,0,0-.09-.71,2.92,2.92,0,0,0-.27-.68,8.59,8.59,0,0,0-.49-.77l-.73-1a.93.93,0,0,0-.42-.12.54.54,0,0,0-.41.17c-.11.18-.27.48-.47.88s-.4.83-.61,1.29-.43.89-.63,1.32-.37.75-.5,1a.34.34,0,0,0-.13.24l-.11.09-.46.49c-.17.17-.35.34-.54.5a1,1,0,0,1-.59.25,1.37,1.37,0,0,1,0-.36,4.07,4.07,0,0,1,.09-.79c.07-.3.14-.6.22-.9s.17-.6.25-.89.14-.51.18-.7a.89.89,0,0,0-.15-.54.51.51,0,0,0-.45-.2h-.14l0-.09s0-.06,0-.1V9.13a1,1,0,0,0-.3-.74,1,1,0,0,0-.77-.32,1.77,1.77,0,0,0-1,.38,4.13,4.13,0,0,0-.95,1A6.5,6.5,0,0,0,16.93,11a5.89,5.89,0,0,0-.26,1.73,1.87,1.87,0,0,0,.07.49h0a.7.7,0,0,0-.41.19c-.17.13-.31.24-.42.34s0,0-.08,0a3.38,3.38,0,0,1-.13-.94q0-.46,0-.9a2.41,2.41,0,0,0-.2-.79,1.18,1.18,0,0,0-.64-.57l-.2,0a.81.81,0,0,0-.39.14,3.15,3.15,0,0,0-.44.33,3.78,3.78,0,0,0-.39.41l-.29.34.15-1.24c.06-.41.12-.82.19-1.23l.19-.15c.54-.46,1.09-.94,1.65-1.45A12.65,12.65,0,0,0,16.82,6,9,9,0,0,0,17.93,4a5.64,5.64,0,0,0,.44-2.22A1.81,1.81,0,0,0,17.89.5,1.55,1.55,0,0,0,16.73,0a1.86,1.86,0,0,0-1,.28A3.85,3.85,0,0,0,14.9,1a5.76,5.76,0,0,0-.68.92,10.33,10.33,0,0,0-.51,1A13.55,13.55,0,0,0,13,4.8a19.63,19.63,0,0,0-.49,2c-.14.68-.26,1.37-.36,2.06s-.19,1.37-.29,2.05l0,.1a9.53,9.53,0,0,1-1.25.89,15.36,15.36,0,0,1-1.9,1,14.87,14.87,0,0,1-2,.67,8.26,8.26,0,0,1-2,.25,5,5,0,0,1-1.31-.16,2.62,2.62,0,0,1-1-.52,2.48,2.48,0,0,1-.69-.94,3.6,3.6,0,0,1-.26-1.42,7.57,7.57,0,0,1,.35-2.19,11.2,11.2,0,0,1,.91-2.15A11.88,11.88,0,0,1,3.54,5a9.63,9.63,0,0,1,1.2-1.34,6.35,6.35,0,0,1,1.39-1,3.34,3.34,0,0,1,1.55-.4,2.52,2.52,0,0,1,1.37.38,1.3,1.3,0,0,1,.59,1.18,1.34,1.34,0,0,1-.2.71,1.33,1.33,0,0,0-.2.52.37.37,0,0,0,.08.21.32.32,0,0,0,.24.09.53.53,0,0,0,.23-.06,3,3,0,0,0,.52-.88,2.13,2.13,0,0,0,.16-.78,1.88,1.88,0,0,0-.24-.94,2.29,2.29,0,0,0-.66-.73,3,3,0,0,0-1-.48,3.76,3.76,0,0,0-1.17-.17,4,4,0,0,0-1.8.44A7.91,7.91,0,0,0,4,2.86,11.92,11.92,0,0,0,2.55,4.37,13.57,13.57,0,0,0,1.49,5.94,13,13,0,0,0,.4,8.39,7.81,7.81,0,0,0,0,10.81a5.76,5.76,0,0,0,.21,1.53,3.91,3.91,0,0,0,.7,1.36,3.54,3.54,0,0,0,1.23,1A4.19,4.19,0,0,0,4,15.05a8.72,8.72,0,0,0,2.28-.33,16.14,16.14,0,0,0,2.38-.86,15.54,15.54,0,0,0,2.2-1.22,11,11,0,0,0,.9-.64,9,9,0,0,0-.08,1.15,4.41,4.41,0,0,0,0,.52,1.71,1.71,0,0,0,.09.47,1,1,0,0,0,.21.37.51.51,0,0,0,.36.14.75.75,0,0,0,.38-.13,3.77,3.77,0,0,0,.5-.75l.39-.8a8.2,8.2,0,0,1,.43-.76,2.66,2.66,0,0,1,.59-.67,2.93,2.93,0,0,1,.11.68,9.88,9.88,0,0,0,.15,1,3.25,3.25,0,0,0,.32.91.65.65,0,0,0,.59.4.9.9,0,0,0,.42-.12,2.43,2.43,0,0,0,.73-.63l.07-.1a1.17,1.17,0,0,0,.89.36.93.93,0,0,0,.41-.12,2.92,2.92,0,0,0,.46-.29,3.93,3.93,0,0,0,.44-.34,3.73,3.73,0,0,0,.33-.29c0,.17,0,.35,0,.55a2.63,2.63,0,0,0,.13.57,1,1,0,0,0,.29.46.69.69,0,0,0,.49.18,1.4,1.4,0,0,0,.77-.25,4.07,4.07,0,0,0,.72-.58c.21-.21.4-.42.56-.61s.28-.34.35-.41a.44.44,0,0,0,.05-.15l.2-.23c.13-.19.28-.41.42-.66s.31-.53.46-.82.3-.57.44-.84.26-.51.37-.72a4.2,4.2,0,0,1,.26-.43,4.6,4.6,0,0,1,.51,1.06,3.64,3.64,0,0,1,.15,1.07,6.92,6.92,0,0,1-.07.85,4.61,4.61,0,0,1-.15.72,2.57,2.57,0,0,0-.1.73,1.35,1.35,0,0,0,.22.69.68.68,0,0,0,.61.37h.21l.75-.31a9.37,9.37,0,0,0,.9-.44,7,7,0,0,0,.63-.37v.08a1,1,0,0,0,.18.66.54.54,0,0,0,.43.21A.92.92,0,0,0,30,14a4.92,4.92,0,0,0,.66-.88c.22-.34.41-.69.6-1.05s.34-.66.47-.9c0,.14,0,.28,0,.42a3.11,3.11,0,0,0,0,.43,4.4,4.4,0,0,0,0,.48,2.1,2.1,0,0,0,.09.5.9.9,0,0,0,.25.39.63.63,0,0,0,.46.16,1.26,1.26,0,0,0,1-.41,6.1,6.1,0,0,0,.67-.91,6.2,6.2,0,0,0,.1.63,2.77,2.77,0,0,0,.22.65,1.48,1.48,0,0,0,.42.51,1,1,0,0,0,.67.21,1.07,1.07,0,0,0,.41-.08,1.18,1.18,0,0,0,.31-.2,8.11,8.11,0,0,0,1.56-1.68,8,8,0,0,0,1-2,.4.4,0,0,0-.1-.3A.35.35,0,0,0,38.44,9.86ZM14,6.41c.12-.49.26-1,.41-1.47.1-.31.22-.68.36-1.09a11.23,11.23,0,0,1,.49-1.16,4.36,4.36,0,0,1,.63-.92,1,1,0,0,1,.76-.39.52.52,0,0,1,.35.13.46.46,0,0,1,.14.34,5.06,5.06,0,0,1-.26,1.63,7.23,7.23,0,0,1-.67,1.44,10.7,10.7,0,0,1-1,1.31q-.54.63-1.11,1.2l-.47.45Q13.84,7.13,14,6.41Zm5.61,3.89c-.16.27-.32.55-.47.83a8,8,0,0,1-.51.81,2.27,2.27,0,0,1-.73.64v-.26a5.2,5.2,0,0,1,.1-1,4.53,4.53,0,0,1,.29-.95,3.16,3.16,0,0,1,.48-.84,2.54,2.54,0,0,1,.67-.64l.49.17,0,.15a.33.33,0,0,0,.23.34A2.58,2.58,0,0,0,19.63,10.3ZM32,10.07l0,.13v-.11l0,0Z"/><path class="cls-2" d="M54.94,6.13A.38.38,0,0,0,55.23,6a.52.52,0,0,0,.11-.33.62.62,0,0,0-.1-.32.49.49,0,0,0-.32-.1.42.42,0,0,0-.3.12.45.45,0,0,0-.13.3.5.5,0,0,0,.14.31A.4.4,0,0,0,54.94,6.13Z"/><path class="cls-2" d="M68.38,11a1.11,1.11,0,0,0-.46-.09,3.16,3.16,0,0,0-1.25.28c-.44.19-.85.4-1.24.61v-.4c0-.39,0-.77,0-1.15s0-.77,0-1.15a2.62,2.62,0,0,0-.11-.84.44.44,0,0,0-.47-.31.64.64,0,0,0-.57.36c-.16.4-.29.79-.4,1.17a11.47,11.47,0,0,1-.37,1.13,5.7,5.7,0,0,1-.52,1,3.83,3.83,0,0,1-.84.93,2.67,2.67,0,0,1-.08-.45c0-.14,0-.29,0-.45a8.9,8.9,0,0,1,.09-1.26,8.84,8.84,0,0,0,.08-1.25c0-.32-.11-.49-.34-.49a.32.32,0,0,0-.21.09.38.38,0,0,0-.13.25,10.51,10.51,0,0,1-.19,1.48c0,.17,0,.34-.08.51a.33.33,0,0,0-.24.1,10.6,10.6,0,0,1-1.56,2c-.49.46-.81.69-1,.69s-.08-.05-.1-.16a3.43,3.43,0,0,1,0-.38c0-.15,0-.3,0-.44s0-.25,0-.34a15.52,15.52,0,0,1,.17-2.18c.11-.77.25-1.5.4-2.18a4.69,4.69,0,0,1,.79-.2l1-.21a8.47,8.47,0,0,0,.88-.23c.24-.09.37-.19.37-.32a.29.29,0,0,0-.22-.28,2.14,2.14,0,0,0-.52-.11,4.31,4.31,0,0,0-.64,0h-.94l-.41,0c.13-.66.25-1.22.35-1.7s.2-.87.28-1.2.14-.59.18-.8a2.75,2.75,0,0,0,.07-.48c0-.21-.12-.32-.35-.32a.71.71,0,0,0-.57.34,3.06,3.06,0,0,0-.39.79,6,6,0,0,0-.26.89,5.68,5.68,0,0,1-.16.62c-.08.3-.16.56-.21.77a4.53,4.53,0,0,1-.21.59,4.76,4.76,0,0,1-.32.51,4.55,4.55,0,0,1-.54.54,5.74,5.74,0,0,0-1,.52.77.77,0,0,0-.42.61c0,.22.09.34.26.34a1.46,1.46,0,0,0,.5-.13,8.56,8.56,0,0,1,1.09-.3q-.15.69-.24,1.35c-.07.45-.12.91-.16,1.38,0,.24-.06.49-.08.76s0,.34,0,.51c0,0-.06,0-.09,0a.93.93,0,0,0-.19,0,3.46,3.46,0,0,1-1.09.77,2.77,2.77,0,0,1-1.15.3.74.74,0,0,1-.34-.07c-.16,0-.24-.22-.24-.61a8.39,8.39,0,0,1,.17-1.45c.1-.6.21-1.24.33-1.94,0-.27-.08-.4-.24-.4s-.28.1-.45.32q-.33.81-.66,1.71a.53.53,0,0,1,0,.12,8.92,8.92,0,0,1-1.21.86,14.82,14.82,0,0,1-1.91,1,14.32,14.32,0,0,1-2,.67,8.39,8.39,0,0,1-2,.25,5,5,0,0,1-1.31-.16,2.62,2.62,0,0,1-1-.52,2.48,2.48,0,0,1-.69-.94,3.6,3.6,0,0,1-.26-1.42,7.57,7.57,0,0,1,.35-2.19A11.2,11.2,0,0,1,44,6.41,11.88,11.88,0,0,1,44.9,5a9.57,9.57,0,0,1,1.19-1.34,6.66,6.66,0,0,1,1.4-1A3.31,3.31,0,0,1,49,2.23a2.54,2.54,0,0,1,1.37.38A1.3,1.3,0,0,1,51,3.79a1.44,1.44,0,0,1-.2.71,1.18,1.18,0,0,0-.2.52.31.31,0,0,0,.08.21.32.32,0,0,0,.24.09.53.53,0,0,0,.23-.06,3,3,0,0,0,.52-.88,2.13,2.13,0,0,0,.16-.78,1.88,1.88,0,0,0-.24-.94,2.55,2.55,0,0,0-.66-.73,3,3,0,0,0-1-.48,3.76,3.76,0,0,0-1.17-.17,4,4,0,0,0-1.8.44,7.91,7.91,0,0,0-1.66,1.14,11.92,11.92,0,0,0-1.42,1.51,13.57,13.57,0,0,0-1.06,1.57,12.4,12.4,0,0,0-1.09,2.45,7.81,7.81,0,0,0-.4,2.42,5.76,5.76,0,0,0,.21,1.53,3.89,3.89,0,0,0,.69,1.36,3.58,3.58,0,0,0,1.24,1,4.19,4.19,0,0,0,1.82.37,8.72,8.72,0,0,0,2.28-.33A16.56,16.56,0,0,0,50,13.86a16.11,16.11,0,0,0,2.2-1.22c.28-.18.52-.36.76-.54a6.62,6.62,0,0,0-.06.91,1.83,1.83,0,0,0,.28,1.05,1,1,0,0,0,.93.41,3.33,3.33,0,0,0,1.34-.35A8.06,8.06,0,0,0,57.16,13c0,.12,0,.22,0,.36a3.15,3.15,0,0,0,.2.76,2,2,0,0,0,.36.62.74.74,0,0,0,.58.26,1.45,1.45,0,0,0,.83-.32,6.58,6.58,0,0,0,.9-.81,10.15,10.15,0,0,0,.86-1.11c.14-.2.27-.41.38-.6,0,.11,0,.23,0,.35a1.94,1.94,0,0,0,.14.5,1,1,0,0,0,.29.36.78.78,0,0,0,.48.14.8.8,0,0,0,.47-.15l.79-.56.19-.23.24-.36.2-.33c.06-.1.1-.14.11-.14s0,.25,0,.38v.41a15.54,15.54,0,0,0-1.65,1.25,9.07,9.07,0,0,0-1.36,1.49A7,7,0,0,0,60.26,17a6.21,6.21,0,0,0-.34,2.1,3.57,3.57,0,0,0,.15,1,2.87,2.87,0,0,0,.45.91,2.35,2.35,0,0,0,.71.66l.09,0a1.82,1.82,0,0,0,.88.22,1.74,1.74,0,0,0,.87-.23l0,0a2.69,2.69,0,0,0,.74-.65s.06-.1.1-.15a5.82,5.82,0,0,0,.45-.72,5.7,5.7,0,0,0,.38-1c0-.11.06-.22.09-.33.09-.31.18-.62.25-.93a13.24,13.24,0,0,0,.23-1.38c0-.27,0-.54.06-.81,0-.6.08-1.21.08-1.83,0-.19,0-.4,0-.6s0-.42,0-.63a10.21,10.21,0,0,1,1.11-.67,5.45,5.45,0,0,1,1.21-.48h.12a.29.29,0,0,0,.3.21.38.38,0,0,0,.25-.11.53.53,0,0,0,.11-.36A.37.37,0,0,0,68.38,11ZM64.2,14.37c0,.41,0,.83,0,1.25,0,.13,0,.26,0,.39-.07.54-.16,1-.27,1.54l-.06.22c-.07.29-.15.55-.23.8l-.09.29c0,.14-.11.32-.19.52A4.06,4.06,0,0,1,63,20a2.07,2.07,0,0,1-.38.49l-.1.07a.71.71,0,0,1-.41.13.59.59,0,0,1-.45-.2,1.89,1.89,0,0,1-.3-.47,3.36,3.36,0,0,1-.14-.45,2.21,2.21,0,0,1-.23-.36,2.38,2.38,0,0,1-.16-.93,2.51,2.51,0,0,1,.3-1.29,2.66,2.66,0,0,1,.78-.82l.08,0,0-.06a9.11,9.11,0,0,1,2.16-2.39Z"/><path d="M43.23,13.87c-1.61-.68-1.59-.73.16-.79-1.62,0-1.44,0,.14,0-1.51,0-1.66-.06-.11-.27-1.55.17-1.4.15.09,0-1.56.18-1.74.19-.17-.23-1.68.35-1.69.3-.3-.72-1.33.89-1.18.78.07-.11-1.18.83-1.3.9-.14-.06-1.17.94-1.06.85,0-.07-1.18,1-1.32,1.07-.24-.09-1.22,1.17-1.26,1.13-.52-.39-.75,1.38-.68,1.2-.09-.16-.6,1.36-.69,1.53-.23,0-.55,1.58-.58,1.57-.26-.08-.35,1.57-.36,1.48-.21-.09-.16,1.34-.16,1.2-.09-.07-.08,1.27-.1,1.4,0,.05-.07,1.58-.09,1.67-.13.07,0,1.67,0,1.68-.29,0,.2,1.61.15,1.53-.35,0,.37,1.3.3,1.17-.17,0,.46,1.18.51,1.31,0,.06.57,1.47.6,1.56,0,.09.63,1.56.6,1.59-.4.22.9,1.33.8,1.23-.19,0,1,1.2,1.07,1.31,0,.08,1.06,1.34,1,1.38-.38.43,1.3,1,1.16.93-.26.24,1.41.69,1.54.75.15-.06,1.47.9,1.47.94-.22.57,1.69.43,1.69.44,0,.18,1.63.28,1.51.28-.12.18,1.63.11,1.75.12.1,0,1.75.15,1.77.19.09.68,1.62-.4,1.52-.35,0,.29,1.56-.63,1.66-.68.09-.09,1.68-.58,1.71-.55.37.61,1.31-1,1.21-.92.06.28,1.16-1.19,1.28-1.31.29,0,1.12-1.39,1.16-1.37.68.34.5-1.6.47-1.45.06.18.43-1.63.48-1.78.35-.1.19-1.77.2-1.77.23,0,0-1.78,0-1.78.29,0-.22-1.67-.18-1.51.17.14-.35-1.65-.38-1.82.25-.24-.56-1.69-.51-1.72.85-.56-1.24-1.12-1.14-1,0,.2-1.14-1.2-1.23-1.33.17-.41-1.34-1-1.18-.87.21,0C41.81,13.42,41.66,13.31,43.23,13.87Z"/><path class="cls-1" d="M41.13,12.66a.28.28,0,0,0-.42,0,.26.26,0,0,0,0,.34.27.27,0,0,0,.38,0A.24.24,0,0,0,41.13,12.66Z"/><path d="M40.91,12.75a.12.12,0,0,1,.17,0,.06.06,0,0,1,0,.06s0,.09-.08.09A.12.12,0,0,1,40.91,12.75Z"/><path class="cls-1" d="M41.73,12.77a.27.27,0,0,0-.42,0,.26.26,0,0,0,0,.34.27.27,0,0,0,.38,0A.28.28,0,0,0,41.73,12.77Z"/><path d="M41.34,12.83a.12.12,0,0,1,.17,0,.06.06,0,0,1,0,.06s0,.08-.08.08S41.31,12.87,41.34,12.83Z"/></g></g></svg>