<svg width="1440" height="328" viewBox="0 0 1440 328" fill="none" xmlns="http://www.w3.org/2000/svg">
<g opacity="0.15">
<g opacity="0.5" clip-path="url(#clip0_1325_11717)">
<path d="M361.031 -0.884277L352.944 20.2341H370.357L378.371 -0.884277H361.031Z" fill="#165D8B"/>
<path d="M243.517 -0.884277L235.393 20.2341H252.806L260.82 -0.884277H243.517Z" fill="#165D8B"/>
<path d="M683.267 57.0093L675.253 78.1276L683.267 99.246H700.68L692.593 78.1276L700.68 57.0093H683.267Z" fill="#165D8B"/>
<path d="M537.34 -0.884277L529.253 20.2341H546.665L554.679 -0.884277H537.34Z" fill="#165D8B"/>
<path d="M596.097 -0.884277L588.01 20.2341H605.422L613.436 -0.884277H596.097Z" fill="#165D8B"/>
<path d="M419.789 -0.884277L411.702 20.2341H429.114L437.128 -0.884277H419.789Z" fill="#165D8B"/>
<path d="M478.582 -0.884277L470.495 20.2341H487.908L495.922 -0.884277H478.582Z" fill="#165D8B"/>
<path d="M524.371 99.246L516.285 78.1276L524.371 57.0093H506.959L498.945 78.1276L506.959 99.246H524.371Z" fill="#165D8B"/>
<path d="M348.063 99.246L339.976 78.1276L348.063 57.0093H330.651L322.637 78.1276L330.651 99.246H348.063Z" fill="#165D8B"/>
<path d="M406.82 99.246L398.733 78.1276L406.82 57.0093H389.408L381.394 78.1276L389.408 99.246H406.82Z" fill="#165D8B"/>
<path d="M465.614 99.246L457.491 78.1276L465.614 57.0093H448.202L440.188 78.1276L448.202 99.246H465.614Z" fill="#165D8B"/>
<path d="M184.723 -0.884277L176.636 20.2341H194.048L202.062 -0.884277H184.723Z" fill="#71BF44"/>
<path d="M641.886 99.246L633.799 78.1276L641.886 57.0093H624.474L616.46 78.1276L624.474 99.246H641.886Z" fill="#165D8B"/>
<path d="M583.129 99.246L575.042 78.1276L583.129 57.0093H565.716L557.702 78.1276L565.716 99.246H583.129Z" fill="#165D8B"/>
<path d="M171.755 47.1781L163.668 26.0597L171.755 4.94141H154.343L146.329 26.0597L154.343 47.1781H171.755Z" fill="#165D8B"/>
<path d="M117.879 30.0649L125.966 51.1833L117.879 72.3016H135.291L143.305 51.1833L135.291 30.0649H117.879Z" fill="#165D8B"/>
<path d="M213.1 57.0093L205.086 78.1276L213.1 99.246H230.512L222.425 78.1276L230.512 57.0093H213.1Z" fill="#165D8B"/>
<path d="M171.755 99.246L163.668 78.1276L171.755 57.0093H154.343L146.329 78.1276L154.343 99.246H171.755Z" fill="#165D8B"/>
<path d="M289.306 99.246L281.183 78.1276L289.306 57.0093H271.894L263.88 78.1276L271.894 99.246H289.306Z" fill="#165D8B"/>
<path d="M302.274 -0.884277L294.187 20.2341H311.599L319.613 -0.884277H302.274Z" fill="#165D8B"/>
<path d="M289.306 47.1781L281.183 26.0597L289.306 4.94141H271.894L263.88 26.0597L271.894 47.1781H289.306Z" fill="#165D8B"/>
<path d="M348.063 47.1781L339.976 26.0597L348.063 4.94141H330.651L322.637 26.0597L330.651 47.1781H348.063Z" fill="#165D8B"/>
<path d="M406.82 47.1781L398.733 26.0597L406.82 4.94141H389.408L381.394 26.0597L389.408 47.1781H406.82Z" fill="#165D8B"/>
<path d="M235.393 30.0649L243.517 51.1833L235.393 72.3016H252.806L260.82 51.1833L252.806 30.0649H235.393Z" fill="#71BF44"/>
<path d="M213.1 4.94141L205.086 26.0597L213.1 47.1781H230.512L222.425 26.0597L230.512 4.94141H213.1Z" fill="#165D8B"/>
<path d="M465.614 47.1781L457.491 26.0597L465.614 4.94141H448.202L440.188 26.0597L448.202 47.1781H465.614Z" fill="#165D8B"/>
<path d="M176.636 30.0649L184.723 51.1833L176.636 72.3016H194.048L202.062 51.1833L194.048 30.0649H176.636Z" fill="#165D8B"/>
<path d="M294.187 30.0649L302.274 51.1833L294.187 72.3016H311.599L319.613 51.1833L311.599 30.0649H294.187Z" fill="#165D8B"/>
<path d="M641.886 47.1781L633.799 26.0597L641.886 4.94141H624.474L616.46 26.0597L624.474 47.1781H641.886Z" fill="#165D8B"/>
<path d="M125.966 -0.884277L117.879 20.2341H135.291L143.305 -0.884277H125.966Z" fill="#165D8B"/>
<path d="M683.267 4.94141L675.253 26.0597L683.267 47.1781H700.68L692.593 26.0597L700.68 4.94141H683.267Z" fill="#165D8B"/>
<path d="M583.129 47.1781L575.042 26.0597L583.129 4.94141H565.716L557.702 26.0597L565.716 47.1781H583.129Z" fill="#165D8B"/>
<path d="M524.371 47.1781L516.285 26.0597L524.371 4.94141H506.959L498.945 26.0597L506.959 47.1781H524.371Z" fill="#165D8B"/>
<path d="M705.561 30.0649L713.648 51.1833L705.561 72.3016H722.973L730.987 51.1833L722.973 30.0649H705.561Z" fill="#165D8B"/>
<path d="M713.648 -0.884277L705.561 20.2341H722.973L730.987 -0.884277H713.648Z" fill="#165D8B"/>
<path d="M352.944 30.0649L361.031 51.1833L352.944 72.3016H370.357L378.371 51.1833L370.357 30.0649H352.944Z" fill="#165D8B"/>
<path d="M654.891 -0.884277L646.767 20.2341H664.18L672.23 -0.884277H654.891Z" fill="#165D8B"/>
<path d="M759.437 47.1781L751.35 26.0597L759.437 4.94141H742.025L734.011 26.0597L742.025 47.1781H759.437Z" fill="#165D8B"/>
<path d="M470.495 30.0649L478.582 51.1833L470.495 72.3016H487.908L495.922 51.1833L487.908 30.0649H470.495Z" fill="#165D8B"/>
<path d="M411.702 30.0649L419.789 51.1833L411.702 72.3016H429.114L437.128 51.1833L429.114 30.0649H411.702Z" fill="#165D8B"/>
<path d="M529.253 30.0649L537.34 51.1833L529.253 72.3016H546.665L554.679 51.1833L546.665 30.0649H529.253Z" fill="#165D8B"/>
<path d="M646.767 30.0649L654.891 51.1833L646.767 72.3016H664.18L672.23 51.1833L664.18 30.0649H646.767Z" fill="#165D8B"/>
<path d="M588.01 30.0649L596.097 51.1833L588.01 72.3016H605.422L613.436 51.1833L605.422 30.0649H588.01Z" fill="#165D8B"/>
<path d="M36.7916 4.94141L28.7776 26.0597L36.7916 47.1781H54.2039L46.117 26.0597L54.2039 4.94141H36.7916Z" fill="#165D8B"/>
<path d="M254.081 138.206L252.696 134.564H235.393L235.466 134.929H235.43L241.877 151.678L243.48 155.865L235.466 176.801H252.733L260.674 155.865L259.071 151.678H259.18L254.081 138.206Z" fill="#165D8B"/>
<path d="M430.352 138.169L429.005 134.564H411.702L411.775 134.929L417.785 150.658L419.752 155.792L411.702 176.801H429.078L437.019 155.865L435.416 151.678H435.489L430.352 138.169Z" fill="#165D8B"/>
<path d="M282.749 134.564H282.822L281.219 130.341L289.233 109.441H271.93L263.88 130.596L267.668 140.609L271.894 151.678H289.306L288.541 149.639L282.749 134.564Z" fill="#165D8B"/>
<path d="M341.506 134.564H341.579L339.976 130.341L347.99 109.441H330.687L322.673 130.596L324.276 134.856L330.651 151.678H348.063L347.189 149.347L341.506 134.564Z" fill="#165D8B"/>
<path d="M371.595 138.169L370.211 134.564H352.944L352.981 134.929H353.017L354.802 139.626L360.995 155.792L352.944 176.801H370.32L378.225 155.865L376.659 151.678H376.731L371.595 138.169Z" fill="#165D8B"/>
<path d="M400.264 134.564H400.336L398.734 130.341L406.748 109.441H389.481L381.431 130.596L383.033 134.856L389.408 151.678H389.445H406.821L406.201 149.966L400.264 134.564Z" fill="#71BF44"/>
<path d="M136.42 137.914L135.145 134.564H117.879L117.915 134.929L123.671 149.93L125.929 155.792L117.879 176.801H135.218L143.159 155.865L141.557 151.678H141.63L136.42 137.914Z" fill="#165D8B"/>
<path d="M106.441 134.564H106.514L104.911 130.341L112.925 109.441H95.6217L87.5713 130.596L94.6382 149.202L95.5853 151.678H112.998L112.342 149.966L106.441 134.564Z" fill="#165D8B"/>
<path d="M213.173 109.441L205.122 130.632L206.725 134.929L213.1 151.678H213.136H230.476L222.389 130.559L230.476 109.441H213.173Z" fill="#165D8B"/>
<path d="M165.198 134.564H165.271L163.668 130.341L171.682 109.441H154.379L146.365 130.596L150.226 140.827L154.343 151.678H171.755L171.099 149.893L165.198 134.564Z" fill="#165D8B"/>
<path d="M195.068 137.55L193.903 134.564H176.636L176.672 134.929H176.709L178.639 140.026L184.686 155.792L176.636 176.801H194.012L201.953 155.865L200.35 151.678H200.423L195.068 137.55Z" fill="#165D8B"/>
<path d="M607.025 139.116L605.313 134.564H588.01L588.083 134.929L594.458 151.568L596.06 155.792L588.01 176.801H605.386L613.327 155.865L611.724 151.678H611.797L607.025 139.116Z" fill="#165D8B"/>
<path d="M459.057 134.564H459.13L457.491 130.341L465.541 109.441H448.238L440.188 130.596L441.827 134.856L448.166 151.678H448.202H465.614L464.704 149.311L459.057 134.564Z" fill="#165D8B"/>
<path d="M683.304 109.441L675.253 130.596L676.893 134.856L683.267 151.678H700.643L692.556 130.559L700.643 109.441H683.304Z" fill="#165D8B"/>
<path d="M759.437 151.678L758.781 149.93L752.88 134.564H752.953L751.35 130.341L759.364 109.441H742.061L734.047 130.596L737.69 140.281L742.025 151.678H742.061H759.437Z" fill="#165D8B"/>
<path d="M725.195 140.645L722.864 134.564H705.561L705.597 134.929L711.827 151.131L713.611 155.792L705.561 176.801H722.864L730.878 155.683L729.275 151.423L725.195 140.645Z" fill="#165D8B"/>
<path d="M517.814 134.564H517.887L516.285 130.341L524.299 109.441H506.996L498.945 130.596L505.466 147.745L506.959 151.678H524.371L523.461 149.274L517.814 134.564Z" fill="#165D8B"/>
<path d="M547.576 137.295L546.519 134.564H529.253L529.289 134.929L531.001 139.334L537.303 155.792L529.253 176.801H546.592L554.533 155.865L552.967 151.678H553.04L547.576 137.295Z" fill="#165D8B"/>
<path d="M36.8644 109.441L28.814 130.632L30.4168 134.929L36.7916 151.678H36.828H54.1674L52.3825 146.981L47.7198 134.783L46.0805 130.559L54.1674 109.441H36.8644Z" fill="#71BF44"/>
<path d="M759.437 99.246L751.35 78.1276L759.437 57.0093H742.025L734.011 78.1276L742.025 99.246H759.437Z" fill="#165D8B"/>
<path d="M576.572 134.564H576.645L575.042 130.341L583.056 109.441H565.753L557.739 130.596L564.114 147.454L565.716 151.678H565.753H583.129L582.473 149.93L576.572 134.564Z" fill="#165D8B"/>
<path d="M635.365 134.564H635.438L633.799 130.341L641.813 109.441H624.547L616.496 130.596L618.099 134.856L624.474 151.678H624.51H641.922L640.975 149.202L635.365 134.564Z" fill="#165D8B"/>
<path d="M59.085 30.0649L67.2083 51.1833L59.085 72.3016H76.4972L84.5112 51.1833L76.4972 30.0649H59.085Z" fill="#165D8B"/>
<path d="M112.998 99.246L104.911 78.1276L112.998 57.0093H95.5853L87.5713 78.1276L95.5853 99.246H112.998Z" fill="#165D8B"/>
<path d="M117.879 82.4966L125.966 103.615L117.879 124.733H135.291L143.305 103.615L135.291 82.4966H117.879Z" fill="#165D8B"/>
<path d="M59.085 82.4966L67.2083 103.615L59.085 124.733H76.4972L84.5112 103.615L76.4972 82.4966H59.085Z" fill="#165D8B"/>
<path d="M176.636 82.4966L184.723 103.615L176.636 124.733H194.048L202.062 103.615L194.048 82.4966H176.636Z" fill="#165D8B"/>
<path d="M235.393 82.4966L243.517 103.615L235.393 124.733H252.806L260.82 103.615L252.806 82.4966H235.393Z" fill="#165D8B"/>
<path d="M67.2083 -0.884277L59.085 20.2341H76.4972L84.5112 -0.884277H67.2083Z" fill="#165D8B"/>
<path d="M112.998 47.1781L104.911 26.0597L112.998 4.94141H95.5853L87.5713 26.0597L95.5853 47.1781H112.998Z" fill="#165D8B"/>
<path d="M294.187 82.4966L302.274 103.615L294.187 124.733H311.599L319.613 103.615L311.599 82.4966H294.187Z" fill="#165D8B"/>
<path d="M705.561 82.4966L713.648 103.615L705.561 124.733H722.973L730.987 103.615L722.973 82.4966H705.561Z" fill="#165D8B"/>
<path d="M8.41475 -0.884277L0.327881 20.2341H17.7401L25.7542 -0.884277H8.41475Z" fill="#165D8B"/>
<path d="M352.944 82.4966L361.031 103.615L352.944 124.733H370.357L378.371 103.615L370.357 82.4966H352.944Z" fill="#165D8B"/>
<path d="M0.327881 30.0649L8.41475 51.1833L0.327881 72.3016H17.7401L25.7542 51.1833L17.7401 30.0649H0.327881Z" fill="#165D8B"/>
<path d="M36.7916 57.0093L28.7776 78.1276L36.7916 99.246H54.2039L46.117 78.1276L54.2039 57.0093H36.7916Z" fill="#165D8B"/>
<path d="M0.327881 82.4966L8.41475 103.615L0.327881 124.733H17.7401L25.7542 103.615L17.7401 82.4966H0.327881Z" fill="#165D8B"/>
<path d="M470.495 82.4966L478.582 103.615L470.495 124.733H487.908L495.922 103.615L487.908 82.4966H470.495Z" fill="#165D8B"/>
<path d="M20.1079 140.973L17.6673 134.564H0.327881L0.400736 134.929L6.77552 151.568L8.37832 155.792L0.327881 176.801H17.6673L25.6813 155.683L24.0421 151.423L20.1079 140.973Z" fill="#165D8B"/>
<path d="M411.702 82.4966L419.789 103.615L411.702 124.733H429.114L437.128 103.615L429.114 82.4966H411.702Z" fill="#165D8B"/>
<path d="M529.253 82.4966L537.34 103.615L529.253 124.733H546.665L554.679 103.615L546.665 82.4966H529.253Z" fill="#165D8B"/>
<path d="M646.767 82.4966L654.891 103.615L646.767 124.733H664.18L672.23 103.615L664.18 82.4966H646.767Z" fill="#165D8B"/>
<path d="M588.01 82.4966L596.097 103.615L588.01 124.733H605.422L613.436 103.615L605.422 82.4966H588.01Z" fill="#165D8B"/>
<path d="M683.195 213.94L675.181 235.058L683.195 256.177H700.607L692.52 235.058L700.607 213.94H683.195Z" fill="#165D8B"/>
<path d="M487.798 176.801L495.812 155.683L487.798 134.564H470.495L470.532 134.929L476.943 151.678H476.907L478.509 155.865L470.495 176.801H487.798Z" fill="#165D8B"/>
<path d="M524.299 256.177L516.212 235.058L524.299 213.94H506.886L498.872 235.058L506.886 256.177H524.299Z" fill="#165D8B"/>
<path d="M348.027 256.177L339.903 235.058L348.027 213.94H330.614L322.6 235.058L330.614 256.177H348.027Z" fill="#165D8B"/>
<path d="M406.784 256.177L398.697 235.058L406.784 213.94H389.372L381.358 235.058L389.372 256.177H406.784Z" fill="#165D8B"/>
<path d="M465.541 256.177L457.454 235.058L465.541 213.94H448.129L440.115 235.058L448.129 256.177H465.541Z" fill="#165D8B"/>
<path d="M641.85 256.177L633.763 235.058L641.85 213.94H624.437L616.423 235.058L624.437 256.177H641.85Z" fill="#165D8B"/>
<path d="M583.092 256.177L575.005 235.058L583.092 213.94H565.68L557.666 235.058L565.68 256.177H583.092Z" fill="#165D8B"/>
<path d="M171.718 203.745L163.595 182.627L171.718 161.508H154.306L146.292 182.627L154.306 203.745H171.718Z" fill="#165D8B"/>
<path d="M135.218 229.233L143.232 208.114L135.218 186.996H117.806L125.893 208.114L117.806 229.233H135.218Z" fill="#165D8B"/>
<path d="M213.063 213.94L205.049 235.058L213.063 256.177H230.476L222.389 235.058L230.476 213.94H213.063Z" fill="#165D8B"/>
<path d="M171.718 256.177L163.595 235.058L171.718 213.94H154.306L146.292 235.058L154.306 256.177H171.718Z" fill="#165D8B"/>
<path d="M289.233 256.177L281.146 235.058L289.233 213.94H271.821L263.807 235.058L271.821 256.177H289.233Z" fill="#165D8B"/>
<path d="M311.49 176.801L319.504 155.683L311.49 134.564H294.187L294.223 134.929L300.598 151.568L302.237 155.792L294.187 176.801H311.49Z" fill="#165D8B"/>
<path d="M289.233 203.745L281.146 182.627L289.233 161.508H271.821L263.807 182.627L271.821 203.745H289.233Z" fill="#165D8B"/>
<path d="M348.027 203.745L339.903 182.627L348.027 161.508H330.614L322.6 182.627L330.614 203.745H348.027Z" fill="#165D8B"/>
<path d="M406.784 203.745L398.697 182.627L406.784 161.508H389.372L381.358 182.627L389.372 203.745H406.784Z" fill="#165D8B"/>
<path d="M252.769 229.233L260.783 208.114L252.769 186.996H235.357L243.444 208.114L235.357 229.233H252.769Z" fill="#165D8B"/>
<path d="M213.063 161.508L205.049 182.627L213.063 203.745H230.476L222.389 182.627L230.476 161.508H213.063Z" fill="#165D8B"/>
<path d="M465.541 203.745L457.454 182.627L465.541 161.508H448.129L440.115 182.627L448.129 203.745H465.541Z" fill="#165D8B"/>
<path d="M194.012 229.233L202.026 208.114L194.012 186.996H176.6L184.686 208.114L176.6 229.233H194.012Z" fill="#165D8B"/>
<path d="M311.527 229.233L319.541 208.114L311.527 186.996H294.114L302.201 208.114L294.114 229.233H311.527Z" fill="#165D8B"/>
<path d="M641.85 203.745L633.763 182.627L641.85 161.508H624.437L616.423 182.627L624.437 203.745H641.85Z" fill="#165D8B"/>
<path d="M683.195 161.508L675.181 182.627L683.195 203.745H700.607L692.52 182.627L700.607 161.508H683.195Z" fill="#165D8B"/>
<path d="M583.092 203.745L575.005 182.627L583.092 161.508H565.68L557.666 182.627L565.68 203.745H583.092Z" fill="#165D8B"/>
<path d="M524.299 203.745L516.212 182.627L524.299 161.508H506.886L498.872 182.627L506.886 203.745H524.299Z" fill="#165D8B"/>
<path d="M722.901 229.233L730.915 208.114L722.901 186.996H705.488L713.612 208.114L705.488 229.233H722.901Z" fill="#165D8B"/>
<path d="M370.32 229.233L378.334 208.114L370.32 186.996H352.908L360.995 208.114L352.908 229.233H370.32Z" fill="#71BF44"/>
<path d="M664.107 176.801L672.121 155.683L664.107 134.564H646.767L646.84 134.929H646.804L653.251 151.678H653.215L654.818 155.865L646.804 176.801H664.107Z" fill="#165D8B"/>
<path d="M759.401 203.745L751.314 182.627L759.401 161.508H741.988L733.974 182.627L741.988 203.745H759.401Z" fill="#165D8B"/>
<path d="M487.835 229.233L495.849 208.114L487.835 186.996H470.423L478.509 208.114L470.423 229.233H487.835Z" fill="#165D8B"/>
<path d="M429.078 229.233L437.092 208.114L429.078 186.996H411.665L419.752 208.114L411.665 229.233H429.078Z" fill="#165D8B"/>
<path d="M546.592 229.233L554.606 208.114L546.592 186.996H529.18L537.303 208.114L529.18 229.233H546.592Z" fill="#165D8B"/>
<path d="M664.143 229.233L672.157 208.114L664.143 186.996H646.731L654.818 208.114L646.731 229.233H664.143Z" fill="#165D8B"/>
<path d="M605.386 229.233L613.4 208.114L605.386 186.996H587.974L596.061 208.114L587.974 229.233H605.386Z" fill="#165D8B"/>
<path d="M36.7552 161.508L28.7412 182.627L36.7552 203.745H54.1675L46.0806 182.627L54.1675 161.508H36.7552Z" fill="#165D8B"/>
<path d="M759.401 256.177L751.314 235.058L759.401 213.94H741.988L733.974 235.058L741.988 256.177H759.401Z" fill="#165D8B"/>
<path d="M76.4608 229.233L84.4749 208.114L76.4608 186.996H59.0486L67.1355 208.114L59.0486 229.233H76.4608Z" fill="#165D8B"/>
<path d="M112.925 256.177L104.838 235.058L112.925 213.94H95.5123L87.4983 235.058L95.5123 256.177H112.925Z" fill="#165D8B"/>
<path d="M117.806 239.428L125.893 260.546L117.806 281.628H135.218L143.232 260.546L135.218 239.428H117.806Z" fill="#165D8B"/>
<path d="M59.0486 239.428L67.1355 260.546L59.0486 281.628H76.4608L84.4749 260.546L76.4608 239.428H59.0486Z" fill="#165D8B"/>
<path d="M176.563 239.428L184.687 260.546L176.6 281.628H194.012L201.99 260.546H202.026L194.012 239.428H176.563Z" fill="#165D8B"/>
<path d="M235.357 239.428L243.444 260.546L235.357 281.628H252.769L260.783 260.546L252.769 239.428H235.357Z" fill="#165D8B"/>
<path d="M76.4244 176.801L84.4384 155.683L76.4244 134.564H59.085L59.1578 134.929H59.1214L65.569 151.678H65.5326L67.1354 155.865L59.1214 176.801H76.4244Z" fill="#165D8B"/>
<path d="M112.925 203.745L104.838 182.627L112.925 161.508H95.5123L87.4983 182.627L95.5123 203.745H112.925Z" fill="#165D8B"/>
<path d="M294.114 239.428L302.201 260.546L294.114 281.628H311.527L319.541 260.546L311.527 239.428H294.114Z" fill="#165D8B"/>
<path d="M705.488 239.428L713.575 260.546L705.488 281.628H722.901L730.915 260.546L722.937 239.428H705.488Z" fill="#71BF44"/>
<path d="M352.872 239.428L360.958 260.546H360.995L352.872 281.628H370.284L378.298 260.546H378.334L370.32 239.428H352.872Z" fill="#165D8B"/>
<path d="M17.7035 229.233L25.7175 208.114L17.7035 186.996H0.29126L8.37813 208.114L0.29126 229.233H17.7035Z" fill="#165D8B"/>
<path d="M36.7552 213.94L28.7412 235.058L36.7552 256.177H54.1675L46.0806 235.058L54.1675 213.94H36.7552Z" fill="#165D8B"/>
<path d="M0.254883 239.428L8.37818 260.546L0.29131 281.628H17.7036L25.7176 260.546L17.7036 239.428H0.254883Z" fill="#165D8B"/>
<path d="M470.423 239.428L478.509 260.546L470.423 281.628H487.835L495.849 260.546L487.835 239.428H470.423Z" fill="#165D8B"/>
<path d="M411.665 239.428L419.752 260.546L411.665 281.628H429.078L437.092 260.546L429.078 239.428H411.665Z" fill="#165D8B"/>
<path d="M529.18 239.428L537.267 260.546L529.18 281.628H546.592L554.606 260.546H554.642L546.628 239.428H529.18Z" fill="#165D8B"/>
<path d="M646.731 239.428L654.818 260.546L646.731 281.628H664.143L672.157 260.546L664.143 239.428H646.731Z" fill="#165D8B"/>
<path d="M587.974 239.428L596.061 260.546L587.974 281.628H605.386L613.4 260.546L605.386 239.428H587.974Z" fill="#165D8B"/>
<path d="M683.195 318.403L675.181 339.522L683.195 360.64H700.607L692.52 339.522L700.607 318.403H683.195Z" fill="#165D8B"/>
<path d="M524.299 360.64L516.212 339.522L524.299 318.403H506.886L498.872 339.522L506.886 360.64H524.299Z" fill="#165D8B"/>
<path d="M347.99 360.64L339.903 339.522L347.99 318.403H330.578L322.564 339.522L330.578 360.64H347.99Z" fill="#165D8B"/>
<path d="M406.784 360.64L398.697 339.522L406.784 318.403H389.372L381.358 339.522L389.372 360.64H406.784Z" fill="#165D8B"/>
<path d="M465.541 360.64L457.454 339.522L465.541 318.403H448.129L440.115 339.522L448.129 360.64H465.541Z" fill="#165D8B"/>
<path d="M641.85 360.64L633.763 339.522L641.85 318.403H624.437L616.423 339.522L624.437 360.64H641.85Z" fill="#165D8B"/>
<path d="M583.092 360.64L575.005 339.522L583.092 318.403H565.68L557.666 339.522L565.68 360.64H583.092Z" fill="#165D8B"/>
<path d="M171.718 308.572L163.595 287.454L171.718 266.335H154.306L146.292 287.454L154.306 308.572H171.718Z" fill="#71BF44"/>
<path d="M117.806 291.459L125.893 312.577L117.806 333.696H135.218L143.232 312.577L135.218 291.459H117.806Z" fill="#71BF44"/>
<path d="M213.063 318.403L205.049 339.522L213.063 360.64H230.476L222.389 339.522L230.476 318.403H213.063Z" fill="#165D8B"/>
<path d="M171.718 360.64L163.595 339.522L171.718 318.403H154.306L146.292 339.522L154.306 360.64H171.718Z" fill="#165D8B"/>
<path d="M289.233 360.64L281.146 339.522L289.233 318.403H271.821L263.807 339.522L271.821 360.64H289.233Z" fill="#165D8B"/>
<path d="M289.233 308.572L281.146 287.454L289.233 266.335H271.821L263.807 287.454L271.821 308.572H289.233Z" fill="#165D8B"/>
<path d="M347.99 308.572L339.903 287.454L347.99 266.335H330.578L322.564 287.454L330.578 308.572H347.99Z" fill="#165D8B"/>
<path d="M406.784 308.572L398.697 287.454L406.784 266.335H389.372L381.358 287.454L389.372 308.572H406.784Z" fill="#165D8B"/>
<path d="M235.357 291.459L243.444 312.577L235.357 333.696H252.769L260.783 312.577L252.769 291.459H235.357Z" fill="#165D8B"/>
<path d="M213.063 266.335L205.049 287.454L213.063 308.572H230.476L222.389 287.454L230.476 266.335H213.063Z" fill="#165D8B"/>
<path d="M465.541 308.572L457.454 287.454L465.541 266.335H448.129L440.115 287.454L448.129 308.572H465.541Z" fill="#165D8B"/>
<path d="M176.6 291.459L184.686 312.577L176.6 333.696H194.012L202.026 312.577L194.012 291.459H176.6Z" fill="#165D8B"/>
<path d="M294.114 291.459L302.201 312.577L294.114 333.696H311.527L319.541 312.577L311.527 291.459H294.114Z" fill="#165D8B"/>
<path d="M641.85 308.572L633.763 287.454L641.85 266.335H624.437L616.423 287.454L624.437 308.572H641.85Z" fill="#165D8B"/>
<path d="M683.195 266.335L675.181 287.454L683.195 308.572H700.607L692.52 287.454L700.607 266.335H683.195Z" fill="#165D8B"/>
<path d="M583.092 308.572L575.005 287.454L583.092 266.335H565.68L557.666 287.454L565.68 308.572H583.092Z" fill="#165D8B"/>
<path d="M524.299 308.572L516.212 287.454L524.299 266.335H506.886L498.872 287.454L506.886 308.572H524.299Z" fill="#165D8B"/>
<path d="M705.488 291.459L713.612 312.577L705.488 333.696H722.901L730.915 312.577L722.901 291.459H705.488Z" fill="#165D8B"/>
<path d="M352.872 291.459L360.995 312.577L352.872 333.696H370.284L378.298 312.577L370.284 291.459H352.872Z" fill="#165D8B"/>
<path d="M759.401 308.572L751.277 287.454L759.401 266.335H741.988L733.974 287.454L741.988 308.572H759.401Z" fill="#165D8B"/>
<path d="M470.423 291.459L478.509 312.577L470.423 333.696H487.835L495.849 312.577L487.835 291.459H470.423Z" fill="#165D8B"/>
<path d="M411.665 291.459L419.752 312.577L411.665 333.696H429.078L437.092 312.577L429.078 291.459H411.665Z" fill="#165D8B"/>
<path d="M529.18 291.459L537.303 312.577L529.18 333.696H546.592L554.606 312.577L546.592 291.459H529.18Z" fill="#165D8B"/>
<path d="M646.731 291.459L654.818 312.577L646.731 333.696H664.143L672.157 312.577L664.143 291.459H646.731Z" fill="#165D8B"/>
<path d="M587.974 291.459L596.061 312.577L587.974 333.696H605.386L613.4 312.577L605.386 291.459H587.974Z" fill="#165D8B"/>
<path d="M36.7552 266.335L28.7412 287.454L36.7552 308.572H54.1675L46.0806 287.454L54.1675 266.335H36.7552Z" fill="#165D8B"/>
<path d="M759.401 360.64L751.277 339.522L759.401 318.403H741.988L733.974 339.522L741.988 360.64H759.401Z" fill="#165D8B"/>
<path d="M59.0486 291.459L67.1355 312.577L59.0486 333.696H76.4608L84.4749 312.577L76.4608 291.459H59.0486Z" fill="#165D8B"/>
<path d="M112.925 360.64L104.838 339.522L112.925 318.403H95.5123L87.4983 339.522L95.5123 360.64H112.925Z" fill="#165D8B"/>
<path d="M112.925 308.572L104.838 287.454L112.925 266.335H95.5123L87.4983 287.454L95.5123 308.572H112.925Z" fill="#165D8B"/>
<path d="M0.29126 291.459L8.37813 312.577L0.29126 333.696H17.7035L25.7175 312.577L17.7035 291.459H0.29126Z" fill="#165D8B"/>
<path d="M36.7552 318.403L28.7412 339.522L36.7552 360.64H54.1675L46.0806 339.522L54.1675 318.403H36.7552Z" fill="#165D8B"/>
</g>
<g opacity="0.5" clip-path="url(#clip1_1325_11717)">
<path d="M1120.03 -0.884277L1111.94 20.2341H1129.36L1137.37 -0.884277H1120.03Z" fill="#165D8B"/>
<path d="M1002.52 -0.884277L994.393 20.2341H1011.81L1019.82 -0.884277H1002.52Z" fill="#165D8B"/>
<path d="M1442.27 57.0093L1434.25 78.1276L1442.27 99.246H1459.68L1451.59 78.1276L1459.68 57.0093H1442.27Z" fill="#165D8B"/>
<path d="M1296.34 -0.884277L1288.25 20.2341H1305.66L1313.68 -0.884277H1296.34Z" fill="#165D8B"/>
<path d="M1355.1 -0.884277L1347.01 20.2341H1364.42L1372.44 -0.884277H1355.1Z" fill="#165D8B"/>
<path d="M1178.79 -0.884277L1170.7 20.2341H1188.11L1196.13 -0.884277H1178.79Z" fill="#165D8B"/>
<path d="M1237.58 -0.884277L1229.5 20.2341H1246.91L1254.92 -0.884277H1237.58Z" fill="#165D8B"/>
<path d="M1283.37 99.246L1275.28 78.1276L1283.37 57.0093H1265.96L1257.95 78.1276L1265.96 99.246H1283.37Z" fill="#165D8B"/>
<path d="M1107.06 99.246L1098.98 78.1276L1107.06 57.0093H1089.65L1081.64 78.1276L1089.65 99.246H1107.06Z" fill="#165D8B"/>
<path d="M1165.82 99.246L1157.73 78.1276L1165.82 57.0093H1148.41L1140.39 78.1276L1148.41 99.246H1165.82Z" fill="#165D8B"/>
<path d="M1224.61 99.246L1216.49 78.1276L1224.61 57.0093H1207.2L1199.19 78.1276L1207.2 99.246H1224.61Z" fill="#165D8B"/>
<path d="M943.723 -0.884277L935.636 20.2341H953.048L961.062 -0.884277H943.723Z" fill="#165D8B"/>
<path d="M1400.89 99.246L1392.8 78.1276L1400.89 57.0093H1383.47L1375.46 78.1276L1383.47 99.246H1400.89Z" fill="#165D8B"/>
<path d="M1342.13 99.246L1334.04 78.1276L1342.13 57.0093H1324.72L1316.7 78.1276L1324.72 99.246H1342.13Z" fill="#165D8B"/>
<path d="M930.755 47.1781L922.668 26.0597L930.755 4.94141H913.343L905.329 26.0597L913.343 47.1781H930.755Z" fill="#165D8B"/>
<path d="M876.879 30.0649L884.966 51.1833L876.879 72.3016H894.291L902.305 51.1833L894.291 30.0649H876.879Z" fill="#165D8B"/>
<path d="M972.1 57.0093L964.086 78.1276L972.1 99.246H989.512L981.425 78.1276L989.512 57.0093H972.1Z" fill="#165D8B"/>
<path d="M930.755 99.246L922.668 78.1276L930.755 57.0093H913.343L905.329 78.1276L913.343 99.246H930.755Z" fill="#165D8B"/>
<path d="M1048.31 99.246L1040.18 78.1276L1048.31 57.0093H1030.89L1022.88 78.1276L1030.89 99.246H1048.31Z" fill="#165D8B"/>
<path d="M1061.27 -0.884277L1053.19 20.2341H1070.6L1078.61 -0.884277H1061.27Z" fill="#165D8B"/>
<path d="M1048.31 47.1781L1040.18 26.0597L1048.31 4.94141H1030.89L1022.88 26.0597L1030.89 47.1781H1048.31Z" fill="#165D8B"/>
<path d="M1107.06 47.1781L1098.98 26.0597L1107.06 4.94141H1089.65L1081.64 26.0597L1089.65 47.1781H1107.06Z" fill="#165D8B"/>
<path d="M1165.82 47.1781L1157.73 26.0597L1165.82 4.94141H1148.41L1140.39 26.0597L1148.41 47.1781H1165.82Z" fill="#165D8B"/>
<path d="M994.393 30.0649L1002.52 51.1833L994.393 72.3016H1011.81L1019.82 51.1833L1011.81 30.0649H994.393Z" fill="#165D8B"/>
<path d="M972.1 4.94141L964.086 26.0597L972.1 47.1781H989.512L981.425 26.0597L989.512 4.94141H972.1Z" fill="#165D8B"/>
<path d="M1224.61 47.1781L1216.49 26.0597L1224.61 4.94141H1207.2L1199.19 26.0597L1207.2 47.1781H1224.61Z" fill="#165D8B"/>
<path d="M935.636 30.0649L943.723 51.1833L935.636 72.3016H953.048L961.062 51.1833L953.048 30.0649H935.636Z" fill="#165D8B"/>
<path d="M1053.19 30.0649L1061.27 51.1833L1053.19 72.3016H1070.6L1078.61 51.1833L1070.6 30.0649H1053.19Z" fill="#165D8B"/>
<path d="M1400.89 47.1781L1392.8 26.0597L1400.89 4.94141H1383.47L1375.46 26.0597L1383.47 47.1781H1400.89Z" fill="#165D8B"/>
<path d="M884.966 -0.884277L876.879 20.2341H894.291L902.305 -0.884277H884.966Z" fill="#165D8B"/>
<path d="M1442.27 4.94141L1434.25 26.0597L1442.27 47.1781H1459.68L1451.59 26.0597L1459.68 4.94141H1442.27Z" fill="#71BF44"/>
<path d="M1342.13 47.1781L1334.04 26.0597L1342.13 4.94141H1324.72L1316.7 26.0597L1324.72 47.1781H1342.13Z" fill="#165D8B"/>
<path d="M1283.37 47.1781L1275.28 26.0597L1283.37 4.94141H1265.96L1257.95 26.0597L1265.96 47.1781H1283.37Z" fill="#165D8B"/>
<path d="M1111.94 30.0649L1120.03 51.1833L1111.94 72.3016H1129.36L1137.37 51.1833L1129.36 30.0649H1111.94Z" fill="#165D8B"/>
<path d="M1413.89 -0.884277L1405.77 20.2341H1423.18L1431.23 -0.884277H1413.89Z" fill="#165D8B"/>
<path d="M1229.5 30.0649L1237.58 51.1833L1229.5 72.3016H1246.91L1254.92 51.1833L1246.91 30.0649H1229.5Z" fill="#165D8B"/>
<path d="M1170.7 30.0649L1178.79 51.1833L1170.7 72.3016H1188.11L1196.13 51.1833L1188.11 30.0649H1170.7Z" fill="#165D8B"/>
<path d="M1288.25 30.0649L1296.34 51.1833L1288.25 72.3016H1305.66L1313.68 51.1833L1305.66 30.0649H1288.25Z" fill="#165D8B"/>
<path d="M1405.77 30.0649L1413.89 51.1833L1405.77 72.3016H1423.18L1431.23 51.1833L1423.18 30.0649H1405.77Z" fill="#165D8B"/>
<path d="M1347.01 30.0649L1355.1 51.1833L1347.01 72.3016H1364.42L1372.44 51.1833L1364.42 30.0649H1347.01Z" fill="#165D8B"/>
<path d="M795.792 4.94141L787.778 26.0597L795.792 47.1781H813.204L805.117 26.0597L813.204 4.94141H795.792Z" fill="#165D8B"/>
<path d="M1013.08 138.206L1011.7 134.564H994.393L994.466 134.929H994.43L1000.88 151.678L1002.48 155.865L994.466 176.801H1011.73L1019.67 155.865L1018.07 151.678H1018.18L1013.08 138.206Z" fill="#165D8B"/>
<path d="M1189.35 138.169L1188 134.564H1170.7L1170.77 134.929L1176.79 150.658L1178.75 155.792L1170.7 176.801H1188.08L1196.02 155.865L1194.42 151.678H1194.49L1189.35 138.169Z" fill="#165D8B"/>
<path d="M1041.75 134.564H1041.82L1040.22 130.341L1048.23 109.441H1030.93L1022.88 130.596L1026.67 140.609L1030.89 151.678H1048.31L1047.54 149.639L1041.75 134.564Z" fill="#165D8B"/>
<path d="M1100.51 134.564H1100.58L1098.98 130.341L1106.99 109.441H1089.69L1081.67 130.596L1083.28 134.856L1089.65 151.678H1107.06L1106.19 149.347L1100.51 134.564Z" fill="#165D8B"/>
<path d="M1130.6 138.169L1129.21 134.564H1111.94L1111.98 134.929H1112.02L1113.8 139.626L1119.99 155.792L1111.94 176.801H1129.32L1137.22 155.865L1135.66 151.678H1135.73L1130.6 138.169Z" fill="#165D8B"/>
<path d="M1159.26 134.564H1159.34L1157.73 130.341L1165.75 109.441H1148.48L1140.43 130.596L1142.03 134.856L1148.41 151.678H1148.44H1165.82L1165.2 149.966L1159.26 134.564Z" fill="#165D8B"/>
<path d="M895.42 137.914L894.145 134.564H876.879L876.915 134.929L882.671 149.93L884.929 155.792L876.879 176.801H894.218L902.159 155.865L900.557 151.678H900.63L895.42 137.914Z" fill="#165D8B"/>
<path d="M865.441 134.564H865.514L863.911 130.341L871.925 109.441H854.622L846.571 130.596L853.638 149.202L854.585 151.678H871.998L871.342 149.966L865.441 134.564Z" fill="#165D8B"/>
<path d="M972.173 109.441L964.122 130.632L965.725 134.929L972.1 151.678H972.136H989.476L981.389 130.559L989.476 109.441H972.173Z" fill="#165D8B"/>
<path d="M924.198 134.564H924.271L922.668 130.341L930.682 109.441H913.379L905.365 130.596L909.226 140.827L913.343 151.678H930.755L930.099 149.893L924.198 134.564Z" fill="#71BF44"/>
<path d="M954.068 137.55L952.903 134.564H935.636L935.672 134.929H935.709L937.639 140.026L943.686 155.792L935.636 176.801H953.012L960.953 155.865L959.35 151.678H959.423L954.068 137.55Z" fill="#165D8B"/>
<path d="M1366.03 139.116L1364.31 134.564H1347.01L1347.08 134.929L1353.46 151.568L1355.06 155.792L1347.01 176.801H1364.39L1372.33 155.865L1370.72 151.678H1370.8L1366.03 139.116Z" fill="#165D8B"/>
<path d="M1218.06 134.564H1218.13L1216.49 130.341L1224.54 109.441H1207.24L1199.19 130.596L1200.83 134.856L1207.17 151.678H1207.2H1224.61L1223.7 149.311L1218.06 134.564Z" fill="#165D8B"/>
<path d="M1442.3 109.441L1434.25 130.596L1435.89 134.856L1442.27 151.678H1459.64L1451.56 130.559L1459.64 109.441H1442.3Z" fill="#165D8B"/>
<path d="M1276.81 134.564H1276.89L1275.28 130.341L1283.3 109.441H1266L1257.95 130.596L1264.47 147.745L1265.96 151.678H1283.37L1282.46 149.274L1276.81 134.564Z" fill="#165D8B"/>
<path d="M1306.58 137.295L1305.52 134.564H1288.25L1288.29 134.929L1290 139.334L1296.3 155.792L1288.25 176.801H1305.59L1313.53 155.865L1311.97 151.678H1312.04L1306.58 137.295Z" fill="#165D8B"/>
<path d="M795.864 109.441L787.814 130.632L789.417 134.929L795.792 151.678H795.828H813.167L811.382 146.981L806.72 134.783L805.081 130.559L813.167 109.441H795.864Z" fill="#165D8B"/>
<path d="M1335.57 134.564H1335.64L1334.04 130.341L1342.06 109.441H1324.75L1316.74 130.596L1323.11 147.454L1324.72 151.678H1324.75H1342.13L1341.47 149.93L1335.57 134.564Z" fill="#165D8B"/>
<path d="M1394.37 134.564H1394.44L1392.8 130.341L1400.81 109.441H1383.55L1375.5 130.596L1377.1 134.856L1383.47 151.678H1383.51H1400.92L1399.98 149.202L1394.37 134.564Z" fill="#165D8B"/>
<path d="M818.085 30.0649L826.208 51.1833L818.085 72.3016H835.497L843.511 51.1833L835.497 30.0649H818.085Z" fill="#165D8B"/>
<path d="M871.998 99.246L863.911 78.1276L871.998 57.0093H854.585L846.571 78.1276L854.585 99.246H871.998Z" fill="#165D8B"/>
<path d="M876.879 82.4966L884.966 103.615L876.879 124.733H894.291L902.305 103.615L894.291 82.4966H876.879Z" fill="#165D8B"/>
<path d="M818.085 82.4966L826.208 103.615L818.085 124.733H835.497L843.511 103.615L835.497 82.4966H818.085Z" fill="#165D8B"/>
<path d="M935.636 82.4966L943.723 103.615L935.636 124.733H953.048L961.062 103.615L953.048 82.4966H935.636Z" fill="#165D8B"/>
<path d="M994.393 82.4966L1002.52 103.615L994.393 124.733H1011.81L1019.82 103.615L1011.81 82.4966H994.393Z" fill="#165D8B"/>
<path d="M826.208 -0.884277L818.085 20.2341H835.497L843.511 -0.884277H826.208Z" fill="#165D8B"/>
<path d="M871.998 47.1781L863.911 26.0597L871.998 4.94141H854.585L846.571 26.0597L854.585 47.1781H871.998Z" fill="#165D8B"/>
<path d="M1053.19 82.4966L1061.27 103.615L1053.19 124.733H1070.6L1078.61 103.615L1070.6 82.4966H1053.19Z" fill="#165D8B"/>
<path d="M767.415 -0.884277L759.328 20.2341H776.74L784.754 -0.884277H767.415Z" fill="#71BF44"/>
<path d="M1111.94 82.4966L1120.03 103.615L1111.94 124.733H1129.36L1137.37 103.615L1129.36 82.4966H1111.94Z" fill="#165D8B"/>
<path d="M759.328 30.0649L767.415 51.1833L759.328 72.3016H776.74L784.754 51.1833L776.74 30.0649H759.328Z" fill="#165D8B"/>
<path d="M795.792 57.0093L787.778 78.1276L795.792 99.246H813.204L805.117 78.1276L813.204 57.0093H795.792Z" fill="#165D8B"/>
<path d="M759.328 82.4966L767.415 103.615L759.328 124.733H776.74L784.754 103.615L776.74 82.4966H759.328Z" fill="#165D8B"/>
<path d="M1229.5 82.4966L1237.58 103.615L1229.5 124.733H1246.91L1254.92 103.615L1246.91 82.4966H1229.5Z" fill="#165D8B"/>
<path d="M779.108 140.973L776.667 134.564H759.328L759.401 134.929L765.776 151.568L767.378 155.792L759.328 176.801H776.667L784.681 155.683L783.042 151.423L779.108 140.973Z" fill="#165D8B"/>
<path d="M1170.7 82.4966L1178.79 103.615L1170.7 124.733H1188.11L1196.13 103.615L1188.11 82.4966H1170.7Z" fill="#165D8B"/>
<path d="M1288.25 82.4966L1296.34 103.615L1288.25 124.733H1305.66L1313.68 103.615L1305.66 82.4966H1288.25Z" fill="#71BF44"/>
<path d="M1405.77 82.4966L1413.89 103.615L1405.77 124.733H1423.18L1431.23 103.615L1423.18 82.4966H1405.77Z" fill="#165D8B"/>
<path d="M1347.01 82.4966L1355.1 103.615L1347.01 124.733H1364.42L1372.44 103.615L1364.42 82.4966H1347.01Z" fill="#165D8B"/>
<path d="M1442.19 213.94L1434.18 235.058L1442.19 256.177H1459.61L1451.52 235.058L1459.61 213.94H1442.19Z" fill="#165D8B"/>
<path d="M1246.8 176.801L1254.81 155.683L1246.8 134.564H1229.5L1229.53 134.929L1235.94 151.678H1235.91L1237.51 155.865L1229.5 176.801H1246.8Z" fill="#165D8B"/>
<path d="M1283.3 256.177L1275.21 235.058L1283.3 213.94H1265.89L1257.87 235.058L1265.89 256.177H1283.3Z" fill="#71BF44"/>
<path d="M1107.03 256.177L1098.9 235.058L1107.03 213.94H1089.61L1081.6 235.058L1089.61 256.177H1107.03Z" fill="#165D8B"/>
<path d="M1165.78 256.177L1157.7 235.058L1165.78 213.94H1148.37L1140.36 235.058L1148.37 256.177H1165.78Z" fill="#165D8B"/>
<path d="M1224.54 256.177L1216.45 235.058L1224.54 213.94H1207.13L1199.11 235.058L1207.13 256.177H1224.54Z" fill="#165D8B"/>
<path d="M1400.85 256.177L1392.76 235.058L1400.85 213.94H1383.44L1375.42 235.058L1383.44 256.177H1400.85Z" fill="#165D8B"/>
<path d="M1342.09 256.177L1334.01 235.058L1342.09 213.94H1324.68L1316.67 235.058L1324.68 256.177H1342.09Z" fill="#165D8B"/>
<path d="M930.718 203.745L922.595 182.627L930.718 161.508H913.306L905.292 182.627L913.306 203.745H930.718Z" fill="#165D8B"/>
<path d="M894.218 229.233L902.232 208.114L894.218 186.996H876.806L884.893 208.114L876.806 229.233H894.218Z" fill="#165D8B"/>
<path d="M972.063 213.94L964.049 235.058L972.063 256.177H989.476L981.389 235.058L989.476 213.94H972.063Z" fill="#165D8B"/>
<path d="M930.718 256.177L922.595 235.058L930.718 213.94H913.306L905.292 235.058L913.306 256.177H930.718Z" fill="#165D8B"/>
<path d="M1048.23 256.177L1040.15 235.058L1048.23 213.94H1030.82L1022.81 235.058L1030.82 256.177H1048.23Z" fill="#165D8B"/>
<path d="M1070.49 176.801L1078.5 155.683L1070.49 134.564H1053.19L1053.22 134.929L1059.6 151.568L1061.24 155.792L1053.19 176.801H1070.49Z" fill="#165D8B"/>
<path d="M1048.23 203.745L1040.15 182.627L1048.23 161.508H1030.82L1022.81 182.627L1030.82 203.745H1048.23Z" fill="#165D8B"/>
<path d="M1107.03 203.745L1098.9 182.627L1107.03 161.508H1089.61L1081.6 182.627L1089.61 203.745H1107.03Z" fill="#165D8B"/>
<path d="M1165.78 203.745L1157.7 182.627L1165.78 161.508H1148.37L1140.36 182.627L1148.37 203.745H1165.78Z" fill="#165D8B"/>
<path d="M1011.77 229.233L1019.78 208.114L1011.77 186.996H994.357L1002.44 208.114L994.357 229.233H1011.77Z" fill="#165D8B"/>
<path d="M972.063 161.508L964.049 182.627L972.063 203.745H989.476L981.389 182.627L989.476 161.508H972.063Z" fill="#165D8B"/>
<path d="M1224.54 203.745L1216.45 182.627L1224.54 161.508H1207.13L1199.11 182.627L1207.13 203.745H1224.54Z" fill="#71BF44"/>
<path d="M953.012 229.233L961.026 208.114L953.012 186.996H935.6L943.686 208.114L935.6 229.233H953.012Z" fill="#165D8B"/>
<path d="M1070.53 229.233L1078.54 208.114L1070.53 186.996H1053.11L1061.2 208.114L1053.11 229.233H1070.53Z" fill="#165D8B"/>
<path d="M1400.85 203.745L1392.76 182.627L1400.85 161.508H1383.44L1375.42 182.627L1383.44 203.745H1400.85Z" fill="#165D8B"/>
<path d="M1442.19 161.508L1434.18 182.627L1442.19 203.745H1459.61L1451.52 182.627L1459.61 161.508H1442.19Z" fill="#165D8B"/>
<path d="M1342.09 203.745L1334.01 182.627L1342.09 161.508H1324.68L1316.67 182.627L1324.68 203.745H1342.09Z" fill="#165D8B"/>
<path d="M1283.3 203.745L1275.21 182.627L1283.3 161.508H1265.89L1257.87 182.627L1265.89 203.745H1283.3Z" fill="#165D8B"/>
<path d="M1129.32 229.233L1137.33 208.114L1129.32 186.996H1111.91L1119.99 208.114L1111.91 229.233H1129.32Z" fill="#165D8B"/>
<path d="M1423.11 176.801L1431.12 155.683L1423.11 134.564H1405.77L1405.84 134.929H1405.8L1412.25 151.678H1412.21L1413.82 155.865L1405.8 176.801H1423.11Z" fill="#165D8B"/>
<path d="M1246.83 229.233L1254.85 208.114L1246.83 186.996H1229.42L1237.51 208.114L1229.42 229.233H1246.83Z" fill="#165D8B"/>
<path d="M1188.08 229.233L1196.09 208.114L1188.08 186.996H1170.67L1178.75 208.114L1170.67 229.233H1188.08Z" fill="#165D8B"/>
<path d="M1305.59 229.233L1313.61 208.114L1305.59 186.996H1288.18L1296.3 208.114L1288.18 229.233H1305.59Z" fill="#165D8B"/>
<path d="M1423.14 229.233L1431.16 208.114L1423.14 186.996H1405.73L1413.82 208.114L1405.73 229.233H1423.14Z" fill="#165D8B"/>
<path d="M1364.39 229.233L1372.4 208.114L1364.39 186.996H1346.97L1355.06 208.114L1346.97 229.233H1364.39Z" fill="#165D8B"/>
<path d="M795.755 161.508L787.741 182.627L795.755 203.745H813.167L805.081 182.627L813.167 161.508H795.755Z" fill="#165D8B"/>
<path d="M835.461 229.233L843.475 208.114L835.461 186.996H818.049L826.135 208.114L818.049 229.233H835.461Z" fill="#165D8B"/>
<path d="M871.925 256.177L863.838 235.058L871.925 213.94H854.512L846.498 235.058L854.512 256.177H871.925Z" fill="#165D8B"/>
<path d="M876.806 239.428L884.893 260.546L876.806 281.628H894.218L902.232 260.546L894.218 239.428H876.806Z" fill="#165D8B"/>
<path d="M818.049 239.428L826.135 260.546L818.049 281.628H835.461L843.475 260.546L835.461 239.428H818.049Z" fill="#165D8B"/>
<path d="M935.563 239.428L943.687 260.546L935.6 281.628H953.012L960.99 260.546H961.026L953.012 239.428H935.563Z" fill="#165D8B"/>
<path d="M994.357 239.428L1002.44 260.546L994.357 281.628H1011.77L1019.78 260.546L1011.77 239.428H994.357Z" fill="#165D8B"/>
<path d="M835.424 176.801L843.438 155.683L835.424 134.564H818.085L818.158 134.929H818.121L824.569 151.678H824.533L826.135 155.865L818.121 176.801H835.424Z" fill="#165D8B"/>
<path d="M871.925 203.745L863.838 182.627L871.925 161.508H854.512L846.498 182.627L854.512 203.745H871.925Z" fill="#165D8B"/>
<path d="M1053.11 239.428L1061.2 260.546L1053.11 281.628H1070.53L1078.54 260.546L1070.53 239.428H1053.11Z" fill="#165D8B"/>
<path d="M1111.87 239.428L1119.96 260.546H1119.99L1111.87 281.628H1129.28L1137.3 260.546H1137.33L1129.32 239.428H1111.87Z" fill="#165D8B"/>
<path d="M776.704 229.233L784.718 208.114L776.704 186.996H759.291L767.378 208.114L759.291 229.233H776.704Z" fill="#165D8B"/>
<path d="M795.755 213.94L787.741 235.058L795.755 256.177H813.167L805.081 235.058L813.167 213.94H795.755Z" fill="#165D8B"/>
<path d="M759.255 239.428L767.378 260.546L759.291 281.628H776.704L784.718 260.546L776.704 239.428H759.255Z" fill="#165D8B"/>
<path d="M1229.42 239.428L1237.51 260.546L1229.42 281.628H1246.83L1254.85 260.546L1246.83 239.428H1229.42Z" fill="#165D8B"/>
<path d="M1170.67 239.428L1178.75 260.546L1170.67 281.628H1188.08L1196.09 260.546L1188.08 239.428H1170.67Z" fill="#165D8B"/>
<path d="M1288.18 239.428L1296.27 260.546L1288.18 281.628H1305.59L1313.61 260.546H1313.64L1305.63 239.428H1288.18Z" fill="#71BF44"/>
<path d="M1405.73 239.428L1413.82 260.546L1405.73 281.628H1423.14L1431.16 260.546L1423.14 239.428H1405.73Z" fill="#165D8B"/>
<path d="M1346.97 239.428L1355.06 260.546L1346.97 281.628H1364.39L1372.4 260.546L1364.39 239.428H1346.97Z" fill="#165D8B"/>
<path d="M1442.19 318.403L1434.18 339.522L1442.19 360.64H1459.61L1451.52 339.522L1459.61 318.403H1442.19Z" fill="#165D8B"/>
<path d="M1283.3 360.64L1275.21 339.522L1283.3 318.403H1265.89L1257.87 339.522L1265.89 360.64H1283.3Z" fill="#165D8B"/>
<path d="M1106.99 360.64L1098.9 339.522L1106.99 318.403H1089.58L1081.56 339.522L1089.58 360.64H1106.99Z" fill="#165D8B"/>
<path d="M1165.78 360.64L1157.7 339.522L1165.78 318.403H1148.37L1140.36 339.522L1148.37 360.64H1165.78Z" fill="#165D8B"/>
<path d="M1224.54 360.64L1216.45 339.522L1224.54 318.403H1207.13L1199.11 339.522L1207.13 360.64H1224.54Z" fill="#165D8B"/>
<path d="M1400.85 360.64L1392.76 339.522L1400.85 318.403H1383.44L1375.42 339.522L1383.44 360.64H1400.85Z" fill="#71BF44"/>
<path d="M1342.09 360.64L1334.01 339.522L1342.09 318.403H1324.68L1316.67 339.522L1324.68 360.64H1342.09Z" fill="#165D8B"/>
<path d="M930.718 308.572L922.595 287.454L930.718 266.335H913.306L905.292 287.454L913.306 308.572H930.718Z" fill="#165D8B"/>
<path d="M876.806 291.459L884.893 312.577L876.806 333.696H894.218L902.232 312.577L894.218 291.459H876.806Z" fill="#165D8B"/>
<path d="M972.063 318.403L964.049 339.522L972.063 360.64H989.476L981.389 339.522L989.476 318.403H972.063Z" fill="#71BF44"/>
<path d="M930.718 360.64L922.595 339.522L930.718 318.403H913.306L905.292 339.522L913.306 360.64H930.718Z" fill="#165D8B"/>
<path d="M1048.23 360.64L1040.15 339.522L1048.23 318.403H1030.82L1022.81 339.522L1030.82 360.64H1048.23Z" fill="#165D8B"/>
<path d="M1048.23 308.572L1040.15 287.454L1048.23 266.335H1030.82L1022.81 287.454L1030.82 308.572H1048.23Z" fill="#165D8B"/>
<path d="M1106.99 308.572L1098.9 287.454L1106.99 266.335H1089.58L1081.56 287.454L1089.58 308.572H1106.99Z" fill="#165D8B"/>
<path d="M1165.78 308.572L1157.7 287.454L1165.78 266.335H1148.37L1140.36 287.454L1148.37 308.572H1165.78Z" fill="#165D8B"/>
<path d="M994.357 291.459L1002.44 312.577L994.357 333.696H1011.77L1019.78 312.577L1011.77 291.459H994.357Z" fill="#165D8B"/>
<path d="M972.063 266.335L964.049 287.454L972.063 308.572H989.476L981.389 287.454L989.476 266.335H972.063Z" fill="#165D8B"/>
<path d="M1224.54 308.572L1216.45 287.454L1224.54 266.335H1207.13L1199.11 287.454L1207.13 308.572H1224.54Z" fill="#165D8B"/>
<path d="M935.6 291.459L943.686 312.577L935.6 333.696H953.012L961.026 312.577L953.012 291.459H935.6Z" fill="#165D8B"/>
<path d="M1053.11 291.459L1061.2 312.577L1053.11 333.696H1070.53L1078.54 312.577L1070.53 291.459H1053.11Z" fill="#165D8B"/>
<path d="M1400.85 308.572L1392.76 287.454L1400.85 266.335H1383.44L1375.42 287.454L1383.44 308.572H1400.85Z" fill="#165D8B"/>
<path d="M1442.19 266.335L1434.18 287.454L1442.19 308.572H1459.61L1451.52 287.454L1459.61 266.335H1442.19Z" fill="#165D8B"/>
<path d="M1342.09 308.572L1334.01 287.454L1342.09 266.335H1324.68L1316.67 287.454L1324.68 308.572H1342.09Z" fill="#165D8B"/>
<path d="M1283.3 308.572L1275.21 287.454L1283.3 266.335H1265.89L1257.87 287.454L1265.89 308.572H1283.3Z" fill="#165D8B"/>
<path d="M1111.87 291.459L1119.99 312.577L1111.87 333.696H1129.28L1137.3 312.577L1129.28 291.459H1111.87Z" fill="#71BF44"/>
<path d="M1229.42 291.459L1237.51 312.577L1229.42 333.696H1246.83L1254.85 312.577L1246.83 291.459H1229.42Z" fill="#165D8B"/>
<path d="M1170.67 291.459L1178.75 312.577L1170.67 333.696H1188.08L1196.09 312.577L1188.08 291.459H1170.67Z" fill="#165D8B"/>
<path d="M1288.18 291.459L1296.3 312.577L1288.18 333.696H1305.59L1313.61 312.577L1305.59 291.459H1288.18Z" fill="#165D8B"/>
<path d="M1405.73 291.459L1413.82 312.577L1405.73 333.696H1423.14L1431.16 312.577L1423.14 291.459H1405.73Z" fill="#165D8B"/>
<path d="M1346.97 291.459L1355.06 312.577L1346.97 333.696H1364.39L1372.4 312.577L1364.39 291.459H1346.97Z" fill="#165D8B"/>
<path d="M795.755 266.335L787.741 287.454L795.755 308.572H813.167L805.081 287.454L813.167 266.335H795.755Z" fill="#165D8B"/>
<path d="M818.049 291.459L826.135 312.577L818.049 333.696H835.461L843.475 312.577L835.461 291.459H818.049Z" fill="#165D8B"/>
<path d="M871.925 360.64L863.838 339.522L871.925 318.403H854.512L846.498 339.522L854.512 360.64H871.925Z" fill="#165D8B"/>
<path d="M871.925 308.572L863.838 287.454L871.925 266.335H854.512L846.498 287.454L854.512 308.572H871.925Z" fill="#165D8B"/>
<path d="M759.291 291.459L767.378 312.577L759.291 333.696H776.704L784.718 312.577L776.704 291.459H759.291Z" fill="#165D8B"/>
<path d="M795.755 318.403L787.741 339.522L795.755 360.64H813.167L805.081 339.522L813.167 318.403H795.755Z" fill="#165D8B"/>
</g>
</g>
<defs>
<clipPath id="clip0_1325_11717">
<rect width="759" height="392" fill="white" transform="translate(0 0.135254)"/>
</clipPath>
<clipPath id="clip1_1325_11717">
<rect width="759" height="392" fill="white" transform="translate(759 0.135254)"/>
</clipPath>
</defs>
</svg>
