<?xml version="1.0" encoding="utf-8"?>
<!-- Generator: Adobe Illustrator 28.0.0, SVG Export Plug-In . SVG Version: 6.00 Build 0)  -->
<svg version="1.1" id="Layer_1" xmlns="http://www.w3.org/2000/svg" xmlns:xlink="http://www.w3.org/1999/xlink" x="0px" y="0px"
	 viewBox="0 0 200 110.5" style="enable-background:new 0 0 200 110.5;" xml:space="preserve">
<style type="text/css">
	.st0{fill:#FFFFFF;}
	.st1{fill:#71BF44;}
	.st2{fill:#165D8B;}
</style>
<g id="logo_svg">
	<g id="Group">
		<g id="Group_2">
			<path id="Vector" class="st0" d="M6.8,96.7V84.9H6.6c-0.5,3.1-0.8,5.1-1,5.8l-1.3,6.1H0.5L4,80.2h5.8v11.7h0.1l5.4-11.7h5.9
				l-3.5,16.5h-3.9l1.3-6.2c0.4-1.7,0.8-3.4,1.2-4.9l0.2-0.7h-0.1L11,96.6L6.8,96.7L6.8,96.7z"/>
			<path id="Vector_2" class="st0" d="M30.8,93.6h-5.1l-1.4,3.1h-4.6l8.4-16.5h5.7l1.4,16.5h-4.3L30.8,93.6z M27.4,90.1h3.3
				l-0.2-4.8v-1c0-0.5,0-1.1,0.1-1.5c-0.2,0.6-0.4,1.3-0.7,1.9L27.4,90.1z"/>
			<path id="Vector_3" class="st0" d="M51.6,96.7h-5.1l-3.2-11.6h-0.1c-0.2,2.2-0.4,3.8-0.6,4.7L41,96.6h-3.9l3.5-16.5h5.1L49,91.2
				h0.1c0.2-1.8,0.4-3.2,0.6-4.2l1.5-6.9h3.9L51.6,96.7z"/>
			<path id="Vector_4" class="st0" d="M71.4,80.2l-2.3,10.5c-0.4,2.1-1.3,3.7-2.5,4.7c-1.2,1-3,1.5-5.1,1.5c-1,0-1.9-0.2-2.6-0.6
				c-0.8-0.4-1.4-1-1.8-1.7c-0.4-0.8-0.6-1.6-0.6-2.5c0-0.5,0.1-1,0.2-1.5l2.3-10.4h4.4L61,90.5c-0.1,0.5-0.2,0.9-0.2,1.3
				c0,1,0.4,1.5,1.4,1.5c0.7,0,1.2-0.2,1.7-0.7c0.4-0.5,0.7-1.2,0.9-2.2L67,80.3h4.4V80.2z"/>
			<path id="Vector_5" class="st0" d="M76,96.7h-4.4l3.5-16.5h9.7l-0.8,3.6h-5.3l-0.6,3.1H83l-0.8,3.6h-5L76,96.7z"/>
			<path id="Vector_6" class="st0" d="M94.1,93.6H89l-1.4,3.1H83l8.4-16.5H97l1.4,16.5h-4.3L94.1,93.6z M90.6,90.1h3.3l-0.2-4.8v-1
				c0-0.5,0-1.1,0.1-1.5c-0.2,0.6-0.4,1.3-0.7,1.9L90.6,90.1z"/>
			<path id="Vector_7" class="st0" d="M109.9,83.6c-0.8,0-1.6,0.3-2.2,0.9c-0.6,0.6-1.2,1.4-1.6,2.4c-0.4,1-0.5,2.2-0.5,3.4
				c0,1,0.2,1.8,0.6,2.3c0.4,0.5,1,0.8,1.8,0.8c0.6,0,1.2-0.1,1.9-0.2c0.6-0.2,1.4-0.4,2.3-0.8v3.6c-1.5,0.7-3.2,1-5,1
				c-1.9,0-3.5-0.5-4.5-1.7c-1.1-1.1-1.6-2.7-1.6-4.8c0-2,0.4-3.8,1.1-5.5c0.8-1.7,1.8-2.9,3.1-3.8c1.3-0.9,2.8-1.3,4.5-1.3
				c2,0,3.8,0.5,5.4,1.5l-1.7,3.5c-0.7-0.4-1.4-0.7-1.9-0.9C111.2,83.7,110.5,83.6,109.9,83.6z"/>
			<path id="Vector_8" class="st0" d="M121.6,96.7h-4.4l2.6-12.9h-3.6l0.8-3.6h11.6l-0.8,3.6h-3.5L121.6,96.7z"/>
			<path id="Vector_9" class="st0" d="M143.7,80.2l-2.3,10.5c-0.4,2.1-1.3,3.7-2.5,4.7c-1.2,1-3,1.5-5.1,1.5c-1,0-1.9-0.2-2.6-0.6
				c-0.8-0.4-1.4-1-1.8-1.7c-0.4-0.8-0.6-1.6-0.6-2.5c0-0.5,0.1-1,0.2-1.5l2.3-10.4h4.4l-2.2,10.3c-0.1,0.5-0.2,0.9-0.2,1.3
				c0,1,0.4,1.5,1.4,1.5c0.7,0,1.2-0.2,1.7-0.7c0.4-0.5,0.7-1.2,0.9-2.2l2.2-10.1h4.4V80.2z"/>
			<path id="Vector_10" class="st0" d="M149.6,90.7l-1.3,6h-4.4l3.5-16.5h4.4c1.9,0,3.4,0.4,4.4,1.1c1,0.8,1.5,1.9,1.5,3.4
				c0,1.2-0.3,2.2-0.8,3.1c-0.5,0.9-1.4,1.5-2.4,2l2.5,5.8l0.4,1.1h-4.8l-2.2-6L149.6,90.7L149.6,90.7z M150.3,87.4h0.6
				c0.7,0,1.3-0.2,1.7-0.6c0.4-0.4,0.6-1,0.6-1.7c0-0.5-0.1-0.8-0.4-1.1c-0.3-0.3-0.6-0.4-1.1-0.4h-0.6L150.3,87.4z"/>
			<path id="Vector_11" class="st0" d="M168.7,96.7h-9.8l3.5-16.5h9.8l-0.8,3.6h-5.4l-0.5,2.6h5l-0.8,3.6h-5l-0.6,3.1h5.4
				L168.7,96.7z"/>
			<path id="Vector_12" class="st0" d="M177.6,90.7l-1.3,6h-4.4l3.5-16.5h4.4c1.9,0,3.4,0.4,4.4,1.1c1,0.8,1.5,1.9,1.5,3.4
				c0,1.2-0.3,2.2-0.8,3.1c-0.5,0.9-1.4,1.5-2.4,2l2.5,5.8l0.4,1.1h-4.8l-2.2-6L177.6,90.7L177.6,90.7z M178.3,87.4h0.6
				c0.7,0,1.3-0.2,1.7-0.6c0.4-0.4,0.6-1,0.6-1.7c0-0.5-0.1-0.8-0.4-1.1c-0.3-0.3-0.6-0.4-1.1-0.4h-0.6L178.3,87.4z"/>
			<path id="Vector_13" class="st0" d="M197.6,91.6c0,1.7-0.5,3-1.7,3.9c-1.1,0.9-2.6,1.4-4.6,1.4c-0.8,0-1.6-0.1-2.3-0.3
				c-0.8-0.2-1.4-0.4-1.9-0.8v-3.9c0.6,0.4,1.4,0.8,2.2,1c0.8,0.3,1.6,0.4,2.2,0.4c0.5,0,1-0.1,1.2-0.3c0.3-0.2,0.4-0.5,0.4-1
				c0-0.2-0.1-0.4-0.2-0.6c-0.1-0.2-0.2-0.4-0.4-0.5c-0.2-0.2-0.6-0.5-1.4-1.2c-0.9-0.7-1.5-1.4-1.9-2.2c-0.4-0.8-0.6-1.6-0.6-2.4
				c0-1,0.3-1.9,0.8-2.6c0.5-0.8,1.2-1.4,2.1-1.8c0.9-0.4,1.9-0.6,3-0.6c1.8,0,3.4,0.4,4.9,1.2l-1.5,3.4c-1.3-0.6-2.4-1-3.3-1
				c-0.5,0-0.9,0.1-1.1,0.3c-0.3,0.2-0.4,0.5-0.4,0.9c0,0.4,0.1,0.7,0.4,1c0.3,0.3,0.8,0.8,1.5,1.3c0.9,0.6,1.6,1.4,2,2.1
				C197.4,89.8,197.6,90.7,197.6,91.6z"/>
		</g>
		<g id="Group_3">
			<path id="Vector_14" class="st0" d="M29.8,59.1l-2.3,10.5c-0.4,2.1-1.3,3.7-2.5,4.7c-1.2,1-3,1.5-5.1,1.5c-1,0-1.9-0.2-2.6-0.6
				c-0.8-0.4-1.4-1-1.8-1.7c-0.4-0.8-0.6-1.6-0.6-2.5c0-0.5,0.1-1,0.2-1.5l2.3-10.4h4.4l-2.3,10.3c-0.1,0.5-0.2,0.9-0.2,1.3
				c0,1,0.4,1.5,1.4,1.5c0.7,0,1.2-0.2,1.7-0.7c0.4-0.5,0.7-1.2,0.9-2.2l2.2-10.1h4.4V59.1z"/>
			<path id="Vector_15" class="st0" d="M29.7,74.2c0-0.8,0.3-1.5,0.8-1.9c0.5-0.5,1.2-0.7,2-0.7c0.6,0,1.1,0.2,1.5,0.4
				c0.4,0.3,0.5,0.8,0.5,1.3c0,0.9-0.2,1.6-0.7,1.9c-0.4,0.4-1.2,0.6-2.2,0.6c-0.6,0-1.1-0.2-1.4-0.4C29.8,75.2,29.7,74.8,29.7,74.2
				z"/>
			<path id="Vector_16" class="st0" d="M47.8,70.5c0,1.7-0.5,3-1.7,3.9c-1.1,0.9-2.6,1.4-4.6,1.4c-0.8,0-1.6-0.1-2.3-0.3
				c-0.8-0.2-1.4-0.4-1.9-0.8v-3.9c0.6,0.4,1.4,0.8,2.2,1c0.8,0.3,1.6,0.4,2.2,0.4c0.5,0,1-0.1,1.2-0.3c0.3-0.2,0.4-0.5,0.4-1
				c0-0.2-0.1-0.4-0.2-0.6c-0.1-0.2-0.2-0.4-0.4-0.5c-0.2-0.2-0.6-0.5-1.4-1.2c-0.9-0.7-1.5-1.4-1.9-2.2c-0.4-0.8-0.6-1.6-0.6-2.4
				c0-1,0.3-1.9,0.8-2.6c0.5-0.8,1.2-1.4,2.1-1.8s1.9-0.6,3-0.6c1.8,0,3.4,0.4,4.9,1.2l-1.5,3.4c-1.3-0.6-2.4-1-3.3-1
				c-0.5,0-0.9,0.1-1.1,0.3c-0.3,0.2-0.4,0.5-0.4,0.9c0,0.4,0.1,0.7,0.4,1c0.3,0.3,0.8,0.8,1.5,1.3c0.9,0.6,1.6,1.4,2,2.1
				C47.6,68.8,47.8,69.6,47.8,70.5z"/>
			<path id="Vector_17" class="st0" d="M49.4,74.2c0-0.8,0.3-1.5,0.8-1.9s1.2-0.7,2-0.7c0.6,0,1.1,0.2,1.5,0.4
				c0.4,0.3,0.5,0.8,0.5,1.3c0,0.9-0.2,1.6-0.7,1.9c-0.4,0.4-1.2,0.6-2.2,0.6c-0.6,0-1.1-0.2-1.4-0.4C49.6,75.2,49.4,74.8,49.4,74.2
				z"/>
			<path id="Vector_18" class="st0" d="M69.6,75.6h-4.4l2.6-12.9h-3.6l0.8-3.6h11.6l-0.8,3.6h-3.6L69.6,75.6z"/>
			<path id="Vector_19" class="st0" d="M75.6,75.6l3.5-16.5h4.5l-3.5,16.5H75.6z"/>
			<path id="Vector_20" class="st0" d="M89.5,69.6l-1.3,6h-4.4l3.5-16.5h4.4c1.9,0,3.4,0.4,4.4,1.1c1,0.8,1.5,1.9,1.5,3.4
				c0,1.2-0.3,2.2-0.8,3.1c-0.5,0.9-1.4,1.5-2.4,2l2.5,5.8l0.4,1.1h-4.8l-2.2-6L89.5,69.6z M90.2,66.3h0.6c0.7,0,1.3-0.2,1.7-0.6
				c0.4-0.4,0.6-1,0.6-1.7c0-0.5-0.1-0.8-0.4-1.1c-0.3-0.3-0.6-0.4-1.1-0.4h-0.6L90.2,66.3z"/>
			<path id="Vector_21" class="st0" d="M108.6,75.6h-9.8l3.5-16.5h9.8l-0.8,3.6H106l-0.5,2.6h5l-0.8,3.6h-5L104,72h5.4L108.6,75.6z"
				/>
		</g>
	</g>
	<g id="Group_4">
		<path id="Vector_22" class="st1" d="M81,36.3c-9,0-17.2,4.5-23.6,12c-1.3,1.5-2.5,3.1-3.6,4.9h3.8h33c2.5-3.9,5.5-7.2,8.8-9.9
			C94,38.8,87.7,36.3,81,36.3z"/>
		<path id="Vector_23" class="st2" d="M132.6,1c14.9,11.8,26.7,29.5,34.5,54.8c0.1,0.2-0.1,0.5-0.3,0.5c-0.1,0-0.1,0-0.1,0
			c-0.2,0-0.4-0.2-0.4-0.3c-6.6-18.4-16.5-34.2-28.6-45.6c-10.8-10.2-19-9.7-21-9.5c13.4,13.8,24.4,32.6,31.2,54.7
			c0.1,0.2-0.1,0.4-0.3,0.5c-0.1,0-0.1,0-0.1,0c-0.2,0-0.4-0.1-0.4-0.3c-6.3-17.6-15.8-32.6-27.4-43.6C108.4,1.9,102.5,1.5,90.4,0.9
			c17,10.8,31.1,30.6,38.8,55.5c0.1,0.1,0,0.2-0.1,0.3c-0.1,0.1-0.1,0.1-0.2,0.2c-0.1,0-0.1,0-0.1,0c-0.2,0-0.3-0.1-0.4-0.3
			c-5.1-14.3-12.8-26.5-22.2-35.3c-9.6-9-20.5-14.1-31.7-14.6c0,0-8.7-0.5-18.3,4.8C42.7,19,31.5,33.9,25.4,53.1h23.2
			c2.5-4.5,5.4-8.6,8.8-11.9c6.7-6.8,14.9-10.8,23.8-10.8c19.6,0,36,19.4,39.9,45.2h11.9h53.1C183.2,35.1,160.6,3.2,132.6,1z"/>
	</g>
	<g id="Group_5">
		<path id="Vector_24" class="st0" d="M29.8,107.6h-2.9l-1.5,2.8h-1.1l4.7-8.6h1l1.1,8.6h-1L29.8,107.6z M29.7,106.7l-0.2-1.7
			c-0.1-0.7-0.2-1.4-0.2-2.1c-0.2,0.3-0.3,0.7-0.5,1c-0.2,0.3-0.6,1.2-1.5,2.8L29.7,106.7z"/>
		<path id="Vector_25" class="st0" d="M44.3,107.8c0,0.8-0.3,1.5-0.8,1.9c-0.5,0.4-1.4,0.7-2.3,0.7c-0.4,0-0.8-0.1-1.1-0.1
			c-0.3-0.1-0.6-0.2-0.9-0.3v-1c0.6,0.3,1.3,0.5,2,0.5c0.6,0,1.1-0.2,1.5-0.4c0.4-0.3,0.5-0.7,0.5-1.2c0-0.3-0.1-0.6-0.3-0.8
			c-0.2-0.2-0.6-0.5-1.1-0.8c-0.6-0.3-1-0.6-1.2-1c-0.2-0.3-0.3-0.7-0.3-1.2c0-0.8,0.3-1.4,0.8-1.8c0.5-0.5,1.2-0.7,2.1-0.7
			c0.4,0,0.8,0.1,1.1,0.1c0.3,0.1,0.7,0.2,1.1,0.4l-0.4,0.9c-0.3-0.2-0.5-0.3-0.9-0.4c-0.3-0.1-0.6-0.1-0.9-0.1
			c-0.5,0-1,0.2-1.2,0.4c-0.3,0.3-0.5,0.6-0.5,1.1c0,0.2,0.1,0.4,0.1,0.5c0.1,0.2,0.2,0.3,0.3,0.4c0.2,0.1,0.4,0.3,0.8,0.5
			c0.6,0.3,1,0.6,1.2,0.8c0.2,0.2,0.4,0.4,0.4,0.6C44.2,107.2,44.3,107.5,44.3,107.8z"/>
		<path id="Vector_26" class="st0" d="M57.5,107.8c0,0.8-0.3,1.5-0.8,1.9c-0.5,0.4-1.4,0.7-2.3,0.7c-0.4,0-0.8-0.1-1.1-0.1
			c-0.3-0.1-0.6-0.2-0.9-0.3v-1c0.6,0.3,1.3,0.5,2,0.5c0.6,0,1.1-0.2,1.5-0.4c0.4-0.3,0.5-0.7,0.5-1.2c0-0.3-0.1-0.6-0.3-0.8
			c-0.2-0.2-0.6-0.5-1.1-0.8c-0.6-0.3-1-0.6-1.2-1c-0.2-0.3-0.3-0.7-0.3-1.2c0-0.8,0.3-1.4,0.8-1.8c0.5-0.5,1.2-0.7,2.1-0.7
			c0.4,0,0.8,0.1,1.1,0.1c0.3,0.1,0.7,0.2,1.1,0.4l-0.4,0.9c-0.3-0.2-0.5-0.3-0.9-0.4c-0.3-0.1-0.6-0.1-0.9-0.1
			c-0.5,0-1,0.2-1.2,0.4c-0.3,0.3-0.5,0.6-0.5,1.1c0,0.2,0.1,0.4,0.1,0.5c0.1,0.2,0.2,0.3,0.3,0.4c0.2,0.1,0.4,0.3,0.8,0.5
			c0.6,0.3,1,0.6,1.2,0.8c0.2,0.2,0.4,0.4,0.4,0.6C57.5,107.2,57.5,107.5,57.5,107.8z"/>
		<path id="Vector_27" class="st0" d="M73.7,105c0,1-0.2,2-0.5,2.8c-0.3,0.8-0.8,1.5-1.5,1.9c-0.6,0.4-1.4,0.7-2.2,0.7
			c-1,0-1.8-0.3-2.3-0.9c-0.5-0.6-0.9-1.4-0.9-2.5c0-1,0.2-2,0.5-2.8c0.4-0.9,0.9-1.5,1.6-2c0.6-0.5,1.4-0.7,2.2-0.7
			c1,0,1.7,0.3,2.3,0.9C73.4,103.1,73.7,103.9,73.7,105z M70.5,102.5c-0.6,0-1.2,0.2-1.7,0.6c-0.5,0.4-0.9,0.9-1.1,1.7
			c-0.3,0.7-0.4,1.5-0.4,2.3c0,0.8,0.2,1.4,0.6,1.8c0.4,0.4,0.9,0.6,1.6,0.6c0.6,0,1.1-0.2,1.6-0.6c0.5-0.4,0.9-0.9,1.1-1.6
			c0.3-0.7,0.4-1.5,0.4-2.4c0-0.8-0.2-1.4-0.5-1.8C71.7,102.7,71.2,102.5,70.5,102.5z"/>
		<path id="Vector_28" class="st0" d="M86.8,102.5c-0.7,0-1.3,0.2-1.8,0.6c-0.5,0.4-1,0.9-1.3,1.7c-0.3,0.8-0.5,1.5-0.5,2.4
			c0,0.8,0.2,1.3,0.6,1.7c0.4,0.4,0.9,0.6,1.6,0.6c0.5,0,1.2-0.1,1.9-0.3v0.9c-0.3,0.1-0.6,0.2-1,0.3c-0.3,0.1-0.6,0.1-1.1,0.1
			c-1,0-1.7-0.3-2.2-0.9c-0.5-0.6-0.8-1.4-0.8-2.4c0-1,0.2-1.9,0.6-2.9c0.4-0.9,1-1.6,1.7-2c0.7-0.5,1.5-0.7,2.4-0.7
			c0.8,0,1.5,0.2,2.1,0.5l-0.4,0.8C87.9,102.6,87.4,102.5,86.8,102.5z"/>
		<path id="Vector_29" class="st0" d="M96,110.3l1.8-8.6h1l-1.8,8.6H96z"/>
		<path id="Vector_30" class="st0" d="M110.8,107.6h-2.9l-1.5,2.8h-1.1l4.7-8.6h1l1.1,8.6h-1L110.8,107.6z M110.6,106.7l-0.2-1.7
			c-0.1-0.7-0.2-1.4-0.2-2.1c-0.2,0.3-0.3,0.7-0.5,1c-0.2,0.3-0.6,1.2-1.5,2.8L110.6,106.7z"/>
		<path id="Vector_31" class="st0" d="M122.7,110.3h-1l1.6-7.7h-2.4l0.2-0.9h5.8l-0.2,0.9h-2.4L122.7,110.3z"/>
		<path id="Vector_32" class="st0" d="M133.5,110.3l1.8-8.6h1l-1.8,8.6H133.5z"/>
		<path id="Vector_33" class="st0" d="M151.8,105c0,1-0.2,2-0.5,2.8c-0.3,0.8-0.9,1.5-1.5,1.9c-0.6,0.4-1.4,0.7-2.2,0.7
			c-1,0-1.8-0.3-2.3-0.9c-0.5-0.6-0.9-1.4-0.9-2.5c0-1,0.2-2,0.5-2.8c0.4-0.9,0.9-1.5,1.6-2c0.7-0.5,1.4-0.7,2.2-0.7
			c1,0,1.7,0.3,2.3,0.9C151.5,103.1,151.8,103.9,151.8,105z M148.6,102.5c-0.6,0-1.2,0.2-1.7,0.6c-0.5,0.4-0.9,0.9-1.1,1.7
			c-0.3,0.7-0.4,1.5-0.4,2.3c0,0.8,0.2,1.4,0.6,1.8c0.4,0.4,0.9,0.6,1.6,0.6c0.6,0,1.1-0.2,1.6-0.6c0.5-0.4,0.9-0.9,1.1-1.6
			c0.3-0.7,0.4-1.5,0.4-2.4c0-0.8-0.2-1.4-0.5-1.8C149.8,102.7,149.3,102.5,148.6,102.5z"/>
		<path id="Vector_34" class="st0" d="M166.1,110.3H165l-2.7-7.2h-0.1c-0.1,0.9-0.3,1.7-0.4,2.4l-1,4.7h-1l1.8-8.6h1.1l2.7,7.2h0.1
			c0.1-0.9,0.3-1.7,0.4-2.4l1-4.8h1L166.1,110.3z"/>
	</g>
</g>
</svg>
