<?xml version="1.0" encoding="utf-8"?>
<!-- Generator: Adobe Illustrator 26.4.1, SVG Export Plug-In . SVG Version: 6.00 Build 0)  -->
<svg version="1.1" id="Layer_1" xmlns="http://www.w3.org/2000/svg" xmlns:xlink="http://www.w3.org/1999/xlink" x="0px" y="0px"
	 viewBox="0 0 288.3 24.4" style="enable-background:new 0 0 288.3 24.4;" xml:space="preserve">
<g>
	<g>
		<path style="fill:#FFFFFF;" d="M62.3,24.3v-23h5.4v18.9H86v4.2L62.3,24.3L62.3,24.3z"/>
		<path style="fill:#FFFFFF;" d="M92,24.3v-23h24.3v4.2h-19V10h18v4.2h-18v5.9h19v4.2H92z"/>
		<path style="fill:#FFFFFF;" d="M148.9,24.3L137.7,6.8l-11.4,17.6h-6l15.4-23.1h3.9l15.3,23.1h-6V24.3z"/>
		<path style="fill:#FFFFFF;" d="M159,24.3v-4.2h20.5c1.5,0,2.1-0.3,2.1-1.4v-3.3c0-1-0.6-1.4-2.1-1.4h-13.8c-5.4,0-7.5-2.3-7.5-5.6
			V6.9c0-3.3,2.1-5.6,7.5-5.6h20v4.2h-20c-1.4,0-2.1,0.4-2.1,1.4v1.6c0,1,0.6,1.4,2.1,1.4h13.8c5.4,0,7.5,2.3,7.5,5.6v3.2
			c0,3.3-2.1,5.6-7.5,5.6C179.5,24.3,159,24.3,159,24.3z"/>
		<path style="fill:#FFFFFF;" d="M216,24.3V14.2h-17.6v10.1h-5.3v-23h5.3V10H216V1.3h5.4v23.1H216V24.3z"/>
		<path style="fill:#FFFFFF;" d="M227.4,24.3v-23h24.3v4.2h-19V10h18v4.2h-18v5.9h19v4.2H227.4z"/>
		<path style="fill:#FFFFFF;" d="M257.9,24.3v-23h21.7c6.7,0,8.7,2.3,8.7,6.8v9.7c0,4.3-2,6.6-8.7,6.6h-21.7V24.3z M282.9,8.1
			c0-2.3-0.7-2.7-3.3-2.7h-16.3v14.7h16.3c2.7,0,3.3-0.4,3.3-2.5V8.1z"/>
		<path style="fill:#93D500;" d="M24.2,18.8c0,1-0.7,1.3-2.1,1.3H7.4c-1.3,0-2.1-0.4-2.1-1.3V1.3H0v17.5c0,3.3,2,5.6,7.4,5.6h14.7
			c5.4,0,7.4-2.3,7.4-5.6v-1.5l-5.3-3.7V18.8z"/>
		<polyline style="fill:#FFFFFF;" points="29.5,12.4 29.5,7.5 53.6,24.3 56.2,24.3 56.2,1.3 51.5,1.3 51.5,17.1 29.5,1.3 24.2,1.3 
			24.2,8.6 24.2,8.6 24.2,8.6 24.2,8.6 29.5,12.4 		"/>
	</g>
</g>
</svg>
