<?xml version="1.0" encoding="utf-8"?>
<!-- Generator: Adobe Illustrator 26.4.1, SVG Export Plug-In . SVG Version: 6.00 Build 0)  -->
<svg version="1.1" id="Layer_1" xmlns="http://www.w3.org/2000/svg" xmlns:xlink="http://www.w3.org/1999/xlink" x="0px" y="0px"
	 viewBox="0 0 1152 1152" style="enable-background:new 0 0 1152 1152;" xml:space="preserve">
<style type="text/css">
	.st0{fill:#1F6FAA;}
	.st1{fill:#4486BB;}
	.st2{fill:#104C97;}
	.st3{fill:#163963;}
	.st4{fill:#0256A0;}
	.st5{fill:#0D5F9B;}
	.st6{fill:#3679AD;}
	.st7{fill:#6796C3;}
	.st8{fill:#598CBF;}
	.st9{fill:#3179AD;}
	.st10{fill:#4383B3;}
</style>
<polygon class="st0" points="1152,200.1 1138.6,208.1 1138.6,294.6 1152,286.6 "/>
<polygon class="st1" points="1152,122.6 1138.6,130.6 1138.6,208.1 1152,200.1 "/>
<rect x="1" class="st2" width="1151" height="1152.5"/>
<polygon class="st3" points="1,466.9 1,1074.6 242,930.8 242,323.1 "/>
<polygon class="st4" points="716.9,665.6 564.9,756.3 564.9,887.5 474.2,941.6 721.1,1088.9 788.8,1048.6 788.8,708.6 "/>
<polygon class="st4" points="721.1,1088.9 614.6,1152.5 827.7,1152.5 793.6,1132.2 788.8,1135 788.8,1129.3 "/>
<polygon class="st4" points="330,0 242,52.5 242,323.1 614,101.1 614,549 1152,228 1152,0 "/>
<path class="st4" d="M942,800v79.7l66.8-39.9L942,800z M942,905v52.1l-153.2,91.3v80.8l4.8,2.9l264.5-157.8L942,905z"/>
<polygon class="st4" points="1146.1,921.8 1058.1,974.3 1152,1030.4 1152,925.3 "/>
<polygon class="st5" points="384.6,653.4 187.9,770.8 474.3,941.6 564.9,887.5 564.9,756.3 384.6,864 "/>
<polygon class="st0" points="474.3,941.6 271.7,1062.5 422.6,1152.5 614.6,1152.5 721.1,1088.9 "/>
<polygon class="st5" points="564.9,251.2 384.6,358.8 384.6,653.4 540.5,560.4 475.6,521.6 564.9,468.3 "/>
<polygon class="st0" points="564.9,575 564.9,756.3 716.9,665.6 "/>
<polygon class="st6" points="540.5,560.4 384.6,653.4 384.6,864 564.9,756.3 564.9,575 "/>
<polygon class="st0" points="788.8,708.6 788.8,1048.6 942,957.2 942,905 920.7,892.4 942,879.7 942,800 "/>
<polygon class="st0" points="788.8,1135 793.6,1132.2 788.8,1129.3 "/>
<polygon class="st0" points="1008.8,839.8 942,879.7 942,905 1058.1,974.3 1146.1,921.8 "/>
<polygon class="st1" points="942,879.7 920.8,892.4 942,905 "/>
<polygon class="st0" points="788.8,622.7 716.9,665.6 788.8,708.6 "/>
<path class="st0" d="M941.9,243.4l-377.1,225v77.4l377.1-225l0,0V243.4z M941.9,320.8v86.4l72.5-43.2L941.9,320.8z"/>
<polygon class="st1" points="1138.6,203.4 941.9,320.8 942,320.8 942,320.8 942,320.8 1014.4,364 1138.6,289.9 "/>
<polygon class="st7" points="1138.6,126 941.9,243.4 941.9,320.8 1138.6,203.4 "/>
<polygon class="st6" points="564.9,468.3 475.6,521.6 540.5,560.4 564.9,545.8 "/>
<polygon class="st1" points="942,320.8 564.9,545.8 564.9,575 716.9,665.6 788.8,622.7 788.8,498.7 942,407.3 942,320.8 "/>
<polygon class="st7" points="942,320.8 942,320.8 942,320.8 "/>
<polygon class="st8" points="564.9,545.8 540.5,560.4 564.9,575 "/>
<polygon class="st0" points="1118.4,426.1 942,531.3 942,800 1008.8,839.8 1152,754.4 1152,446.1 "/>
<polygon class="st1" points="1152,282 1138.6,289.9 1138.6,414 1118.4,426.1 1152,446.1 "/>
<polygon class="st1" points="942,531.3 788.8,622.7 788.8,708.6 942,800 "/>
<polygon class="st1" points="1014.4,364 942,407.3 942,531.3 1118.4,426.1 "/>
<polygon class="st7" points="1138.6,289.9 1014.4,364 1118.4,426.1 1138.6,414 "/>
<polygon class="st7" points="942,407.3 788.8,498.7 788.8,622.7 942,531.3 "/>
<polygon class="st1" points="1152,754.4 1008.8,839.8 1146.1,921.8 1152,918.3 "/>
<polygon class="st9" points="271.7,1062.5 187.9,1112.5 187.9,1152.5 422.6,1152.5 "/>
<polygon class="st10" points="187.9,1012.4 187.9,1112.5 271.7,1062.5 "/>
</svg>
